<?xml version="1.0" encoding="UTF-8"?>
<svg id="Layer_2" data-name="Layer 2" xmlns="http://www.w3.org/2000/svg" viewBox="0 0 410.68 179.61">
  <defs>
    <style>
      .cls-1 {
        fill: #e23e52;
      }

      .cls-2 {
        fill: #231f20;
      }

      .cls-3 {
        fill: #b72b3b;
      }

      .cls-4 {
        fill: #ffd02b;
      }

      .cls-5 {
        fill: #fff;
      }

      .cls-6 {
        fill: #fdcd07;
      }

      .cls-7 {
        fill: #fdf38b;
      }

      .cls-8 {
        fill: #ffce03;
      }

      .cls-9 {
        fill: none;
        stroke: #fdcd07;
        stroke-miterlimit: 10;
        stroke-width: 3px;
      }
    </style>
  </defs>
  <g id="Layer_1-2" data-name="Layer 1">
    <path class="cls-9" d="M142.41,66.65c-.91-.52-2.17-.22-2.69.7-.22.38-.44.76-.69,1.13-.11.17-.23.34-.34.5-.06.08-.12.16-.18.25-.03.04-.06.08-.08.11-.01.01-.03.03-.05.06-.57.71-1.2,1.38-1.86,2-.3.28-.6.54-.92.8-.1.09-.21.17-.32.26.04-.03.17-.13,0,0-.19.14-.38.28-.58.42-.76.53-1.55,1-2.36,1.43-3.17,1.66-6.98,2.47-10.78,2.39-2.65-.05-5.34-.52-7.92-1.29,1.13-.96,2.44-1.51,3.67-1.52l5.53-.06-4.58-3.32c.87-.32,1.75-.62,2.64-.89l7.86-2.41-8.15-1.14c-3.35-.47-6.19-1.5-8.43-3.06-1.43-1-2.58-2.25-3.49-3.83l-.07-.13c-.48-.84-.89-1.76-1.26-2.83,7.22-1.43,11.59-5.79,11.84-12.04.1-2.43-.36-5.1-1.36-7.93-.12-.33-.22-.68-.33-1.03-.47-1.52-1.05-3.42-2.57-4.72-1.44-1.23-3.42-1.15-4.7.19-.48.5-.76,1.06-.99,1.5l-.06.13c-1.09,2.1-2.65,3.83-4.42,5.4,3.24-6.36,4.97-13.41,5.03-20.55.04-4.77-.78-8.59-2.51-11.66-1.59-2.83-3.56-4.24-5.54-3.97-1.29.18-2.99,1.14-3.82,4.68-1.45,6.22-4.62,12.21-9.94,18.81-1.12-.48-2.23-.89-3.33-1.23-.05-1.69-1.55-3.06-2.1-3.56-3.18-2.9-7.81-.6-10.79,1.81-2.98-2.41-7.61-4.71-10.79-1.81-.59.54-2.27,2.08-2.08,3.94-.98.28-1.97.61-2.97.98-.02-.02-.04-.04-.06-.06-5.36-6.63-8.53-12.63-9.99-18.87-.83-3.55-2.53-4.5-3.82-4.68-1.98-.28-3.95,1.13-5.54,3.97-1.73,3.08-2.55,6.89-2.51,11.66.06,7.31,1.89,14.52,5.28,21-1.98-1.69-3.73-3.55-4.93-5.85l-.06-.12c-.23-.45-.52-1-.99-1.51-1.28-1.35-3.26-1.43-4.7-.19-1.51,1.3-2.1,3.19-2.57,4.72-.11.35-.22.7-.33,1.03-1,2.83-1.45,5.49-1.36,7.93.24,6.12,4.43,10.42,11.37,11.94-.31,1.03-.65,2.08-1.02,3.14-.91,1.54-2.04,2.76-3.44,3.74-2.24,1.56-5.08,2.6-8.43,3.06l-8.15,1.14,7.86,2.41c.88.27,1.77.57,2.64.89l-4.58,3.32,5.53.06c1.36.01,2.81.68,4.01,1.83-2.24.58-4.53.94-6.8.98-3.8.08-7.61-.73-10.78-2.39-.82-.43-1.61-.9-2.36-1.43-.2-.14-.39-.27-.58-.42-.18-.13-.04-.03,0,0-.11-.08-.21-.17-.32-.26-.31-.26-.62-.53-.92-.8-.67-.62-1.3-1.29-1.86-2-.02-.03-.04-.05-.05-.06-.02-.03-.04-.06-.08-.11-.06-.08-.12-.16-.18-.25-.12-.16-.23-.33-.34-.5-.24-.37-.47-.74-.69-1.13-.52-.92-1.78-1.22-2.69-.7-.93.54-1.22,1.74-.7,2.66,2.12,3.73,5.48,6.73,9.34,8.62,6.55,3.2,14.01,3.24,20.9,1.26,1.3,4.79,3.86,9.19,7.41,12.78-6.68,5.38-17.71,15.28-18.59,24.33-.31,3.18.61,6.01,2.73,8.42.59.67,1.31,1.33,2.12,1.96-1.81,1.24-2.17,2.44-2.17,3.42,0,.02,0,.03,0,.05h-.26c.08,2.52.43,4.99,1.02,7.41.03.27.09.53.19.78,2.06,7.76,6.66,14.85,13.41,20.51,3.74,3.14,7.99,5.68,12.56,7.59v8.13l.69.49c.44.31,4.72,3.04,20.23,3.04,16.56,0,17.51-2.39,17.82-3.17l.12-.29v-7.09c17.07-5.96,29.31-20.14,30.12-36.84.04-.21.05-.42.05-.62,0-.13,0-.27-.02-.4,0-.25.02-.49.02-.74h-.19c-.67-1.89-3.5-4.21-13.83-6.16,0-.02-.01-.05-.02-.07.13,0,.25.02.37.02,3.16,0,6.53-.83,9.39-2.39,1.91-1.04,3.44-2.49,4.56-4.25l6.44-.13s.81-1.89-.6-3.28l-4.38.18c.17-.57.32-1.16.41-1.77.28-1.81.52-4.07.18-6.26l3.94-.55s.67-1.98-.83-3.19l-4.08.65c-.27-.53-.6-1.04-1-1.51-1.01-1.18-2.36-2.05-4.02-2.56-.82-.26-1.66-.39-2.51-.48l-8.58-6.79c1.02-1.19,1.95-2.45,2.77-3.78.93-1.53,1.6-3.15,2.24-4.73.47-1.15.93-2.25,1.46-3.27,7.35,2.51,15.51,2.74,22.6-.72,3.87-1.89,7.23-4.89,9.34-8.62.52-.92.22-2.12-.7-2.66Z"/>
    <g>
      <g>
        <g>
          <path class="cls-8" d="M46.95,45.95c-1.91-1.17-3.76-2.45-5.56-3.79-3.42-2.54-6.69-5.18-8.68-9.01-.22-.42-.43-.87-.76-1.21-.62-.66-1.47-.65-2.15-.06-1.41,1.21-1.78,3.31-2.36,4.97-.82,2.32-1.35,4.79-1.26,7.25.28,7.15,6.55,10.16,13.05,10.7,1.52.13,3.05.15,4.58.1,0,0,3.15-8.94,3.15-8.94Z"/>
          <path class="cls-2" d="M42.28,56.74c-1.12,0-2.19-.04-3.22-.13-8.95-.74-14.46-5.4-14.74-12.45-.1-2.43.36-5.1,1.36-7.93.12-.33.22-.68.33-1.03.47-1.52,1.05-3.42,2.57-4.72,1.44-1.23,3.42-1.15,4.7.19.48.5.76,1.06.99,1.51l.06.12c1.82,3.5,4.89,5.96,8.15,8.39,1.96,1.46,3.73,2.67,5.42,3.7l1.26.77-4.05,11.5-1.26.04c-.54.02-1.07.03-1.58.03ZM30.79,33.46c-.59.67-.92,1.75-1.24,2.81-.12.4-.25.8-.38,1.17-.84,2.39-1.23,4.61-1.15,6.58.29,7.25,8.04,8.68,11.37,8.95.99.08,2.01.12,3.11.11l2.24-6.37c-1.4-.9-2.87-1.93-4.45-3.1-3.47-2.58-7.04-5.45-9.21-9.64l-.07-.14c-.07-.13-.14-.27-.21-.39Z"/>
        </g>
        <g>
          <path class="cls-8" d="M96.56,45.95c1.91-1.17,3.76-2.45,5.56-3.79,3.42-2.54,6.69-5.18,8.68-9.01.22-.42.43-.87.76-1.21.62-.66,1.47-.65,2.15-.06,1.41,1.21,1.78,3.31,2.36,4.97.82,2.32,1.35,4.79,1.26,7.25-.28,7.15-6.55,10.16-13.05,10.7-1.52.13-3.05.15-4.58.1,0,0-3.15-8.94-3.15-8.94Z"/>
          <path class="cls-2" d="M101.23,56.74c-.51,0-1.04,0-1.58-.03l-1.26-.04-4.05-11.5,1.26-.77c1.69-1.03,3.46-2.24,5.42-3.7,3.26-2.43,6.33-4.89,8.15-8.39l.06-.13c.23-.45.52-1,.99-1.5,1.28-1.35,3.26-1.43,4.7-.19,1.51,1.3,2.1,3.19,2.57,4.72.11.35.22.7.33,1.03,1,2.83,1.45,5.49,1.36,7.93-.28,7.05-5.79,11.7-14.74,12.45-1.03.09-2.09.13-3.22.13ZM101.03,53.09c1.1,0,2.12-.03,3.11-.11,3.32-.28,11.08-1.7,11.37-8.95.08-1.97-.31-4.19-1.15-6.58-.13-.37-.25-.77-.38-1.17-.33-1.06-.66-2.16-1.24-2.81-.07.12-.14.25-.21.39l-.07.14c-2.17,4.18-5.74,7.05-9.21,9.64-1.58,1.17-3.04,2.2-4.45,3.1l2.24,6.37Z"/>
        </g>
        <g>
          <g>
            <polygon class="cls-8" points="94.86 93.25 99.9 88.97 116.48 102.1 98.69 107.25 94.86 93.25"/>
            <path class="cls-2" d="M97.4,109.53l-4.62-16.92,7.08-6,20.54,16.25-23,6.67ZM96.95,93.88l3.03,11.1,12.59-3.65-12.62-9.99-2.99,2.54Z"/>
          </g>
          <g>
            <path class="cls-8" d="M39.76,125.92c-3.43,5.3-11.66,1.18-14.82-2.39-9.41-10.67,12.19-27.54,19.03-32.8l4.68,2.52"/>
            <path class="cls-2" d="M34.92,130.27c-4.21,0-8.93-2.78-11.37-5.55-2.12-2.41-3.04-5.24-2.73-8.42,1.06-10.9,16.84-23.03,22.02-27.02l.95-.73,5.74,3.09-1.76,3.2-3.61-1.95c-12.46,9.73-19.08,17.72-19.66,23.76-.21,2.17.39,4.03,1.84,5.67,1.98,2.24,6.06,4.48,8.99,4.28,1.27-.09,2.22-.64,2.89-1.67l3.1,1.97c-1.3,2.01-3.28,3.17-5.72,3.34-.22.02-.44.02-.67.02Z"/>
          </g>
          <g>
            <path class="cls-8" d="M69.35,136.75c2.53-1.39,5.83-.31,7.75,1.93s2.66,5.35,2.8,8.36c.03.68.05,1.42.45,1.96.46.62,1.26.78,1.99.89,7.08,1.02,14.34.57,21.26-1.32,1.14-.31,2.37-.75,2.97-1.82.49-.9.41-2.01.3-3.04-1.84-17.29-5.89-34.31-12.01-50.46h-46.22c-6.12,16.15-10.17,33.17-12.01,50.46-.11,1.03-.2,2.14.3,3.04.59,1.07,1.83,1.51,2.97,1.82,6.92,1.89,14.18,2.35,21.26,1.32.73-.11,1.54-.27,1.99-.89.4-.54.42-1.28.45-1.96.14-3.01.88-6.13,2.8-8.36s5.22-3.32,7.75-1.93"/>
            <path class="cls-2" d="M53.76,152.24c-4.84,0-9.7-.64-14.35-1.92-.99-.27-3.06-.84-4.09-2.7-.73-1.33-.66-2.76-.51-4.1,1.85-17.46,5.93-34.59,12.12-50.91l.45-1.18h48.77l.45,1.18c6.19,16.32,10.26,33.44,12.12,50.91.14,1.34.22,2.77-.51,4.1-1.03,1.86-3.1,2.43-4.09,2.7-7.12,1.95-14.73,2.42-22.02,1.37-.73-.11-2.26-.33-3.21-1.61-.72-.97-.77-2.08-.81-2.89v-.07c-.1-2.18-.6-5.2-2.37-7.27-.61-.71-1.46-1.3-2.37-1.62l-.06.11c-.47-.26-.98-.38-1.51-.39-.53,0-1.04.13-1.51.39l-.06-.11c-.91.33-1.76.92-2.37,1.62-1.77,2.06-2.26,5.09-2.36,7.27v.06c-.04.81-.09,1.93-.81,2.89-.95,1.29-2.48,1.51-3.21,1.61-2.53.37-5.1.55-7.67.55ZM49.93,95.07c-5.83,15.67-9.68,32.09-11.46,48.83-.06.61-.16,1.53.08,1.97.25.45,1.07.73,1.84.94,6.63,1.81,13.72,2.25,20.5,1.28.5-.07.7-.14.78-.18.06-.17.08-.61.09-.88v-.07c.19-3.99,1.28-7.17,3.24-9.46,1.8-2.1,4.32-3.25,6.75-3.19,2.42-.05,4.95,1.09,6.75,3.19,1.96,2.29,3.05,5.47,3.24,9.46v.07c.02.27.04.71.1.88.08.04.28.11.78.18,6.78.98,13.87.54,20.5-1.28.77-.21,1.59-.49,1.84-.94.25-.44.15-1.36.08-1.97-1.78-16.74-5.63-33.16-11.46-48.83h-43.66Z"/>
          </g>
        </g>
        <ellipse class="cls-5" cx="71.93" cy="117.94" rx="15.84" ry="16.45"/>
        <g>
          <path class="cls-4" d="M120.35,67.86c-3.28-.46-6.53-1.49-9.24-3.38-1.78-1.24-3.08-2.77-4.06-4.47,0,0,0,0,0,0-1.18-2.06-1.91-4.39-2.46-6.84-.48-2.13-.9-4.28-1.27-6.44-.03-.19-.05-.38-.08-.59-.07-.66-.11-1.39-.32-1.97-.19-.52-.38-1.03-.58-1.52-2.5-6.16-6.11-10.32-10.04-13.11-7.59-5.4-16.37-5.69-20.59-5.45-1.58.09-2.53.26-2.53.26h0c-4.53.24-11.86,1.27-18.07,5.19-4.33,2.73-8.12,6.87-10.04,13.11-.27.89-.51,1.83-.71,2.81-.05.24-.12.46-.19.69-.1.3-.21.6-.27.91-.4,1.94-1.59,7.4-3.53,12.95,0,0,0,0,0,0-.98,1.71-2.28,3.23-4.06,4.47-2.71,1.89-5.96,2.92-9.24,3.38,1.99.61,3.94,1.34,5.83,2.18-.92.67-1.85,1.34-2.77,2.01,2.1.02,4.08,1.1,5.53,2.59.65.67,1.19,1.4,1.67,2.18,2.08,10.79,11.72,24.14,37.77,24.3h0c.06,0,.12,0,.18,0h.09c.07,0,.14,0,.21,0h0s.09,0,.14,0,.09,0,.14,0c.16,0,.32,0,.48,0,9.15-.14,18.68-1.96,26.16-7.42,2.96-2.16,5.5-4.86,7.41-7.98,1.71-2.79,2.51-6.11,4.2-8.89.47-.78,1.02-1.51,1.67-2.18,1.45-1.49,3.44-2.57,5.53-2.59-.92-.67-1.85-1.34-2.77-2.01,1.9-.84,3.85-1.57,5.83-2.18Z"/>
          <path class="cls-2" d="M71.09,102.95c-12.2-.08-21.97-2.96-29.03-8.56-5.42-4.3-9.13-10.28-10.49-16.88-.39-.61-.8-1.13-1.25-1.59-1.24-1.28-2.78-2.02-4.22-2.03l-5.53-.06,4.58-3.32c-.87-.32-1.75-.62-2.64-.89l-7.86-2.41,8.15-1.14c3.35-.47,6.19-1.5,8.43-3.06,1.41-.98,2.53-2.21,3.44-3.74,1.85-5.34,3-10.55,3.41-12.55.08-.38.19-.72.29-1.01l.04-.11c.06-.17.11-.34.14-.47.2-1.02.45-2.02.75-2.99,1.85-6.01,5.49-10.76,10.82-14.12,6.36-4.01,13.73-5.19,18.84-5.47.3-.05,1.24-.18,2.64-.26,4.71-.27,13.81.12,21.78,5.79,4.69,3.33,8.28,8.01,10.68,13.91.21.52.41,1.05.61,1.6.25.71.32,1.45.39,2.11l.03.29c.02.17.03.33.06.48.36,2.15.78,4.28,1.25,6.34.61,2.69,1.3,4.63,2.22,6.26l.07.13c.92,1.58,2.06,2.83,3.49,3.83,2.24,1.56,5.08,2.6,8.43,3.06l8.15,1.14-7.86,2.41c-.88.27-1.77.57-2.64.89l4.58,3.32-5.53.06c-1.44.01-2.98.76-4.22,2.03-.51.53-.97,1.13-1.42,1.86-.77,1.26-1.34,2.67-1.96,4.16-.64,1.57-1.31,3.2-2.24,4.73-2.01,3.28-4.66,6.14-7.89,8.5-6.82,4.98-15.98,7.6-27.23,7.78-.12,0-.27,0-.41,0h-.37c-.06,0-.15,0-.24,0h-.24ZM71.35,99.3h.21s.71,0,.71,0c10.48-.17,18.92-2.54,25.12-7.07,2.84-2.07,5.17-4.58,6.92-7.45.78-1.28,1.36-2.7,1.98-4.21.64-1.56,1.3-3.17,2.22-4.68.59-.96,1.21-1.78,1.92-2.5.82-.85,1.75-1.54,2.73-2.06l-2.29-1.66,2.89-1.28c.15-.07.3-.13.45-.2-1.52-.59-2.91-1.33-4.17-2.2-1.81-1.26-3.25-2.82-4.42-4.75l-.06-.05-.15-.32c-1.1-1.94-1.94-4.25-2.62-7.28-.48-2.12-.91-4.32-1.29-6.54-.04-.23-.07-.46-.09-.71l-.03-.31c-.04-.47-.09-.95-.19-1.24-.18-.5-.36-.98-.55-1.45-2.13-5.25-5.3-9.39-9.41-12.31-7.05-5.01-15.19-5.35-19.41-5.11-.29.02-.55.04-.79.06v.11l-1.75.09c-4.67.24-11.44,1.29-17.17,4.91-4.57,2.88-7.69,6.95-9.27,12.11-.26.85-.48,1.73-.66,2.63-.07.34-.16.63-.25.91l-.04.12c-.07.22-.14.42-.18.59-.42,2.06-1.59,7.39-3.5,12.89v1.52h-.81c-1.1,1.66-2.42,3.02-4.03,4.14-1.25.87-2.64,1.61-4.17,2.2.15.07.3.13.45.2l2.89,1.28-2.29,1.66c.98.52,1.91,1.21,2.73,2.06.7.72,1.33,1.54,1.92,2.5l.17.28.06.32c1.13,5.88,4.41,11.22,9.24,15.05,6.4,5.08,15.39,7.69,26.73,7.76h.13s.13,0,.13,0Z"/>
        </g>
        <path class="cls-2" d="M85.12,127.89c-3.3,8.42-14.76,11.18-22.04,5.97-2.37-1.64-4.22-3.94-5.11-6.54,2.14,1.72,4.28,3.1,6.53,4.05,7.03,3.07,14.68,1.21,20.61-3.48h0Z"/>
        <path class="cls-2" d="M37.84,142.13s12.84,5.69,26.01,1.81l-.7,5.05-5.18,1.42-18.07-1.86-2.97-1.82.9-4.61Z"/>
        <path class="cls-2" d="M106.59,142.13s-12.84,5.69-26.01,1.81l.7,5.05,5.18,1.42,18.07-1.86,2.97-1.82-.9-4.61Z"/>
        <path class="cls-2" d="M24,115.77s2.34,6.33,7.57,4.26c0,0-.26,5.56,6.66,5.69l-2.61,2.73-6.86-1.9-4.87-4.44-1.99-4.79,2.1-1.55Z"/>
        <g>
          <g>
            <path class="cls-5" d="M54.52,26.36c-4.81-5.92-8.71-12.25-10.46-19.73-1.11-4.77-3.87-3.95-5.95-.24-1.82,3.24-2.31,7.11-2.28,10.76.07,7.8,2.24,15.57,6.24,22.3,0,0,3.59,2.88,10.11-3.57s2.34-9.52,2.34-9.52Z"/>
            <path class="cls-2" d="M44.41,41.9c-2.16,0-3.4-.96-3.5-1.04l-.26-.21-.17-.28c-4.18-7.03-6.42-15.05-6.49-23.2-.04-4.77.78-8.59,2.51-11.66,1.59-2.83,3.56-4.25,5.54-3.97,1.29.18,2.99,1.14,3.82,4.68,1.46,6.24,4.63,12.24,9.99,18.87.52.46,1.66,1.7,1.82,3.77.19,2.58-1.21,5.37-4.18,8.31-3.81,3.77-6.91,4.73-9.08,4.73ZM43.42,38.12c1.08.44,3.7.19,7.46-3.53,2.07-2.05,3.18-3.96,3.12-5.38-.04-.92-.59-1.39-.61-1.41l-.25-.16-.06-.14c-5.78-7.12-9.22-13.63-10.82-20.46-.29-1.24-.63-1.71-.77-1.86-.26.12-.96.64-1.78,2.09-1.41,2.51-2.08,5.74-2.05,9.86.06,7.36,2.05,14.6,5.74,20.98Z"/>
          </g>
          <path class="cls-2" d="M39.13,29.38l-3.58-.87c.41-1.66,1.44-2.95,2.39-4,1.81-2.01,3.62-3.42,5.52-4.32,2.5-1.18,5.16-1.44,7.5-.73l-1.07,3.49c-1.44-.43-3.2-.24-4.84.53-1.45.68-2.87,1.81-4.35,3.45-.65.72-1.34,1.57-1.56,2.45Z"/>
          <g>
            <path class="cls-4" d="M36.07,19.19c.17-.24.34-.47.52-.7,2.25-2.91,6.02-4.6,9.72-4.37"/>
            <path class="cls-2" d="M37.57,20.25l-3.01-2.11c.18-.26.37-.51.56-.76,2.64-3.4,6.97-5.34,11.3-5.08l-.23,3.64c-3.07-.2-6.27,1.25-8.14,3.66-.16.21-.32.43-.47.65Z"/>
          </g>
        </g>
        <g>
          <g>
            <path class="cls-5" d="M89.26,26.36c4.81-5.92,8.71-12.25,10.46-19.73,1.11-4.77,3.87-3.95,5.95-.24,1.82,3.24,2.31,7.11,2.28,10.76-.07,7.8-2.24,15.57-6.24,22.3,0,0-3.59,2.88-10.11-3.57-6.52-6.45-2.34-9.52-2.34-9.52Z"/>
            <path class="cls-2" d="M99.37,41.9c-2.17,0-5.27-.96-9.08-4.73-2.97-2.94-4.38-5.73-4.18-8.31.16-2.07,1.3-3.31,1.82-3.77,5.36-6.63,8.53-12.63,9.99-18.87.83-3.55,2.53-4.5,3.82-4.68,1.98-.28,3.95,1.13,5.54,3.97,1.73,3.08,2.55,6.89,2.51,11.66-.07,8.15-2.31,16.18-6.49,23.2l-.17.28-.26.21c-.1.08-1.34,1.04-3.5,1.04ZM90.37,27.82c-.11.1-.55.56-.59,1.39-.06,1.42,1.04,3.33,3.12,5.38,4.27,4.22,6.78,3.77,7.46,3.53,3.7-6.38,5.68-13.62,5.74-20.98.04-4.12-.63-7.35-2.05-9.86-.82-1.45-1.51-1.97-1.78-2.09-.14.15-.48.62-.77,1.86-1.6,6.84-5.03,13.34-10.82,20.46l-.18.23-.14.09Z"/>
          </g>
          <path class="cls-2" d="M104.65,29.38c-.22-.88-.91-1.73-1.55-2.45-1.48-1.64-2.9-2.77-4.35-3.45-1.64-.77-3.41-.97-4.84-.53l-1.07-3.49c2.34-.7,5-.45,7.5.73,1.9.9,3.71,2.31,5.52,4.32.95,1.05,1.97,2.35,2.38,4l-3.58.87Z"/>
          <g>
            <path class="cls-4" d="M107.71,19.19c-.17-.24-.34-.47-.52-.7-2.25-2.91-6.02-4.6-9.72-4.37"/>
            <path class="cls-2" d="M106.21,20.25c-.16-.22-.31-.44-.48-.65-1.87-2.41-5.06-3.86-8.14-3.66l-.23-3.64c4.33-.26,8.66,1.68,11.3,5.08.19.25.38.51.56.76l-3.01,2.11Z"/>
          </g>
        </g>
        <g>
          <path class="cls-2" d="M69.34,123.31c2.42.83,4.36,2.74,5.19,5.14-2.42-.82-4.35-2.75-5.19-5.14h0Z"/>
          <path class="cls-2" d="M74.53,123.31c-.84,2.39-2.77,4.31-5.19,5.14.83-2.4,2.78-4.31,5.19-5.14h0Z"/>
        </g>
        <g>
          <path class="cls-5" d="M81.3,25.19s2.94,10.59-9.54,17.38c-12.49-6.79-9.54-17.38-9.54-17.38,0,0-3.39-.53,0-3.62,3.39-3.09,9.54,2.91,9.54,2.91,0,0,6.15-6,9.54-2.91,3.39,3.09,0,3.62,0,3.62Z"/>
          <path class="cls-2" d="M71.75,44.65l-.89-.48c-10.64-5.79-11.04-14.36-10.69-17.87-.53-.37-.98-.89-1.19-1.58-.64-2.1,1.33-3.89,1.98-4.48,3.18-2.9,7.81-.6,10.79,1.81,2.98-2.41,7.61-4.71,10.79-1.81.65.59,2.62,2.38,1.98,4.48-.21.69-.66,1.21-1.19,1.58.35,3.51-.05,12.08-10.69,17.87l-.89.48ZM62.92,23.46l1.64.26-.57,1.96c-.1.36-2.21,8.83,7.77,14.79,4.18-2.49,6.75-5.7,7.66-9.55.7-2.96.11-5.22.11-5.24l-.55-1.97,1.62-.25c-.13-.15-.31-.33-.54-.54-1.56-1.42-5.46,1.38-7,2.87l-1.29,1.25-1.29-1.26c-1.54-1.49-5.44-4.29-7-2.87-.23.21-.41.39-.54.54Z"/>
        </g>
        <g>
          <ellipse class="cls-5" cx="55.39" cy="56.22" rx="10.95" ry="10.84"/>
          <ellipse class="cls-2" cx="55.39" cy="56.22" rx="7.74" ry="7.66"/>
        </g>
        <g>
          <ellipse class="cls-5" cx="86.87" cy="56.22" rx="10.95" ry="10.84"/>
          <ellipse class="cls-2" cx="86.87" cy="56.22" rx="7.74" ry="7.66"/>
        </g>
        <path class="cls-2" d="M142.41,66.65c-.91-.52-2.17-.22-2.69.7-.22.38-.44.76-.69,1.13-.11.17-.23.34-.34.5-.06.08-.12.16-.18.25-.03.04-.06.08-.08.11-.01.01-.03.03-.05.06-.57.71-1.2,1.38-1.86,2-.3.28-.6.54-.92.8-.1.09-.21.17-.32.26.04-.03.17-.13,0,0-.19.14-.38.28-.58.42-.76.53-1.55,1-2.36,1.43-3.17,1.66-6.98,2.47-10.78,2.39-4.15-.09-8.39-1.17-12.19-2.88-3.87-1.75-7.56-4.1-11.86-4.66-4.15-.54-8.86.83-11.02,4.61-.52.91-.22,2.12.7,2.66.91.53,2.16.22,2.69-.7.09-.16.19-.31.29-.47.02-.04.04-.06.05-.09.04-.05.09-.11.14-.16.12-.13.24-.26.37-.39.06-.06.13-.12.2-.18,0,0,.17-.14.24-.19.08-.05.25-.17.3-.2.18-.11.36-.22.55-.32.14-.07.28-.14.42-.2-.08.04.4-.15.47-.17.36-.12.72-.21,1.09-.29.12-.03.25-.05.37-.07,0,0,.08-.01.13-.02.05,0,.1-.01.1-.01.13-.01.25-.02.38-.03.41-.03.82-.03,1.24-.02.19,0,.38.02.57.03.03,0,.14.01.22.02.07.01.18.02.19.03,4.2.7,7.75,3.18,11.68,4.8,7.91,3.28,17.06,3.97,24.9.13,3.87-1.89,7.23-4.89,9.34-8.62.52-.92.22-2.12-.7-2.66Z"/>
        <path class="cls-2" d="M2.46,66.65c.91-.52,2.17-.22,2.69.7.22.38.44.76.69,1.13.11.17.23.34.34.5.06.08.12.16.18.25.03.04.06.08.08.11.01.01.03.03.05.06.57.71,1.2,1.38,1.86,2,.3.28.6.54.92.8.1.09.21.17.32.26-.04-.03-.17-.13,0,0,.19.14.38.28.58.42.76.53,1.55,1,2.36,1.43,3.17,1.66,6.98,2.47,10.78,2.39,4.15-.09,8.39-1.17,12.19-2.88,3.87-1.75,7.56-4.1,11.86-4.66,4.15-.54,8.86.83,11.02,4.61.52.91.22,2.12-.7,2.66-.91.53-2.16.22-2.69-.7-.09-.16-.19-.31-.29-.47-.02-.04-.04-.06-.05-.09-.04-.05-.09-.11-.14-.16-.12-.13-.24-.26-.37-.39-.06-.06-.13-.12-.2-.18,0,0-.17-.14-.24-.19-.08-.05-.25-.17-.3-.2-.18-.11-.36-.22-.55-.32-.14-.07-.28-.14-.42-.2.08.04-.4-.15-.47-.17-.36-.12-.72-.21-1.09-.29-.12-.03-.25-.05-.37-.07,0,0-.08-.01-.13-.02-.05,0-.1-.01-.1-.01-.13-.01-.25-.02-.38-.03-.41-.03-.82-.03-1.24-.02-.19,0-.38.02-.57.03-.03,0-.14.01-.22.02-.07.01-.18.02-.19.03-4.2.7-7.75,3.18-11.68,4.8-7.91,3.28-17.06,3.97-24.9.13-3.87-1.89-7.23-4.89-9.34-8.62-.52-.92-.22-2.12.7-2.66Z"/>
        <path class="cls-2" d="M62.19,73.75c-1.06,0-1.96.89-1.96,1.94s.9,1.94,1.96,1.94,1.96-.89,1.96-1.94-.9-1.94-1.96-1.94Z"/>
        <path class="cls-2" d="M80.84,73.75c-1.06,0-1.96.89-1.96,1.94s.9,1.94,1.96,1.94,1.96-.89,1.96-1.94-.9-1.94-1.96-1.94Z"/>
        <path class="cls-2" d="M45.84,107.25s3.02-9.23,8.56-7.49l-7.5-4.74-1.06,12.24Z"/>
        <path class="cls-2" d="M97.64,107.25s-3.02-9.23-8.56-7.49l7.5-4.74,1.06,12.24Z"/>
        <path class="cls-2" d="M41.82,94.27s3.27-.64.54,14.72l5.18-12.76-5.72-1.96Z"/>
        <path class="cls-2" d="M41.58,47.57s1.26-5.53,5.83-6.24l-4.93-.95-.9,1.96v5.23Z"/>
        <path class="cls-2" d="M41.19,33.83s2.5,5.35,9.62,1.31l-4.51,4.34-3.64-.24-2.16-3.81.69-1.61Z"/>
        <path class="cls-2" d="M101.6,47.44s-1.26-5.53-5.83-6.24l4.93-.95.9,1.96v5.23Z"/>
        <path class="cls-2" d="M102.56,33.7s-2.5,5.35-9.62,1.31l4.51,4.34,3.64-.24,2.16-3.81-.69-1.61Z"/>
        <path class="cls-2" d="M85.72,69.94c-1.58-1.36-3.66-2.11-5.77-1.88-1.08.12-2.13.39-3.08.95-.46.27-.87.61-1.28.93-.03.02-.05.04-.06.05-.06.05-.13.09-.2.13-.01,0-.05.04-.1.07-.28-.09-.99-.4-1.17-.45-.63-.2-1.28-.31-1.94-.39-1.21-.14-2.47-.04-3.64.28-.23.06-.46.14-.68.22-.04.01-.18.07-.29.11,0,0-.02-.01-.02-.02-.04-.04-.09-.08-.08-.08-.12-.12-.25-.24-.37-.35-.79-.71-1.7-1.23-2.72-1.53-2.33-.67-4.82-.07-6.63,1.49-.8.69-.71,2.04,0,2.75.79.79,1.98.69,2.78,0,.03-.03.06-.05.08-.06.09-.06.18-.12.28-.17.1-.06.2-.11.3-.16.02,0,.05-.02.08-.03.2-.06.4-.11.61-.16-.05.02.45-.04.52-.04.07,0,.61.06.52.03.21.04.41.1.61.16.05.02.09.03.12.04.09.04.18.09.26.13.11.06.21.12.31.19.01.01.03.02.05.04,1.17,1.07,2.3,1.92,3.99,1.59.62-.12,1.21-.38,1.82-.52.44-.1,1.08-.11,1.65-.08,1.13.06,2.41.91,3.68.9.74,0,1.47-.26,2.08-.66.31-.2.6-.44.89-.67.11-.09.21-.17.32-.26-.13.11-.11.09.08-.04.82-.44,1.27-.55,2.32-.54.07,0,.12.01.15.01.09.02.18.03.28.05.23.05.45.12.67.2-.12-.04.4.21.46.24.09.05.18.11.27.17.02.02.06.05.11.09.8.69,1.99.78,2.78,0,.71-.7.8-2.06,0-2.75Z"/>
        <path class="cls-2" d="M57.6,29.53s2.16-1.31,2.89,1.23.86-4.51.86-4.51l-3.2.52-1.26.55v2.2"/>
        <path class="cls-2" d="M86.14,29.53s-2.16-1.31-2.89,1.23-.86-4.51-.86-4.51l3.2.52,1.26.55v2.2"/>
        <path class="cls-2" d="M28.58,47.57s5.88,4.65,9.93,1.48l.13,4.88h-2.09l-7.97-3.99v-2.37Z"/>
        <path class="cls-2" d="M114.81,47.57s-5.88,4.65-9.93,1.48l-.13,4.88h2.09s7.97-3.99,7.97-3.99v-2.37Z"/>
        <path class="cls-2" d="M65.93,53.28c-2.01-4.65-5.86-7.31-10.68-7.44,0,0-2.15-.12-2.15-.12-6.36-.25-12.37-5.12-13.4-11.33,2.77,3.36,5.86,5.81,9.85,7.04.62.13,1.25.36,1.88.42.56.11,1.36.22,1.93.23,1.4.1,3.26.21,4.61.6,4.83,1.15,8.54,5.83,7.98,10.59h0Z"/>
        <path class="cls-2" d="M76.35,53.28c-.56-4.77,3.15-9.44,7.98-10.59,1.34-.39,3.21-.5,4.61-.6.57,0,1.36-.11,1.93-.23.64-.06,1.26-.29,1.88-.42,3.98-1.24,7.07-3.69,9.85-7.04-1.02,6.2-7.05,11.09-13.4,11.33,0,0-2.15.12-2.15.12-4.82.12-8.67,2.79-10.68,7.44h0Z"/>
      </g>
      <g>
        <g>
          <ellipse class="cls-3" cx="71.34" cy="130.11" rx="46.3" ry="8.28"/>
          <path class="cls-1" d="M117.44,132.79c0,22.07-20.58,36.15-46.24,36.15s-45.32-14.61-46.03-36.15"/>
          <path class="cls-1" d="M51.95,165.35v8.39s3.83,2.73,19.26,2.73,16.27-2.12,16.27-2.12v-7.93"/>
          <g>
            <path class="cls-2" d="M71.48,140.03c-12.46,0-24.2-.87-33.04-2.45-13.38-2.39-14.93-5.41-14.93-7.47s1.55-5.08,14.93-7.47c8.84-1.58,20.57-2.45,33.04-2.45s24.2.87,33.04,2.45c13.38,2.39,14.93,5.41,14.93,7.47s-1.55,5.08-14.93,7.47c-8.84,1.58-20.57,2.45-33.04,2.45ZM26.83,130.13s.93,2.28,12.87,4.33c8.57,1.47,19.86,2.28,31.77,2.28s23.2-.81,31.77-2.28c11.4-1.95,12.75-4.13,12.86-4.35-.11-.23-1.46-2.4-12.86-4.35-8.57-1.47-19.86-2.28-31.77-2.28s-23.2.81-31.77,2.28c-11.98,2.06-12.87,4.35-12.87,4.37h0Z"/>
            <path class="cls-2" d="M71.48,147.16c-17.55,0-47.25-2.09-47.25-9.92h3.33c.11.57,2.6,2.6,12.35,4.33,8.41,1.49,19.62,2.31,31.57,2.31,18.26,0,39.08-2.04,43.54-5.93l2.2,2.47c-5.71,4.99-28.21,6.76-45.74,6.76Z"/>
            <path class="cls-2" d="M71.33,170.58c-12.57,0-24.45-4.16-33.47-11.72-9.07-7.6-14.26-17.79-14.61-28.69l3.32-.11c.33,9.96,5.1,19.3,13.44,26.29,8.42,7.06,19.54,10.94,31.33,10.94,24.69,0,44.78-17.19,44.78-38.32h3.33c0,22.95-21.58,41.61-48.11,41.61Z"/>
            <path class="cls-2" d="M71.34,178.11c-15.51,0-19.79-2.73-20.23-3.04l-.69-.49v-9.23h3.33v7.37c1.65.66,6.52,2.1,17.6,2.1,10.04,0,13.52-.92,14.61-1.34v-7.07h3.33v8.25l-.12.29c-.31.78-1.26,3.17-17.82,3.17Z"/>
          </g>
        </g>
        <g>
          <g>
            <path class="cls-7" d="M71.48,137.79c-3.12,0-6.24-.06-9.27-.17-3.94-.14-7.78-.38-11.4-.7-3.04-.27-5.93-.6-8.6-.99-2.75-.4-5.24-.85-7.42-1.35l-2.44-.56,1.99-1.49c8.57-6.42,22.45-10.26,37.14-10.26s28.57,3.83,37.14,10.26l1.99,1.49-2.44.56c-2.18.5-4.68.95-7.42,1.35-2.67.39-5.56.72-8.6.99-3.62.32-7.45.56-11.4.7-3.03.11-6.15.17-9.27.17Z"/>
            <path class="cls-2" d="M71.48,123.44c15.04,0,28.34,3.96,36.43,10.02-2.16.49-4.62.94-7.33,1.33-2.62.38-5.49.71-8.54.98-3.54.31-7.35.55-11.34.69-2.98.11-6.07.16-9.23.16s-6.25-.06-9.23-.16c-3.99-.14-7.79-.38-11.34-.69-3.05-.27-5.91-.6-8.54-.98-2.71-.39-5.17-.84-7.33-1.33,8.09-6.06,21.39-10.02,36.43-10.02M71.48,121.13c-14.93,0-29.08,3.92-37.84,10.49l-3.99,2.99,4.88,1.11c2.22.51,4.75.96,7.52,1.36,2.68.39,5.6.72,8.67,1,3.64.32,7.5.56,11.46.7,3.05.11,6.18.17,9.31.17s6.26-.06,9.31-.17c3.96-.14,7.82-.38,11.46-.7,3.07-.27,5.98-.61,8.67-1,2.77-.4,5.3-.86,7.52-1.36l4.88-1.11-3.99-2.99c-8.76-6.57-22.91-10.49-37.84-10.49h0Z"/>
          </g>
          <g>
            <path class="cls-7" d="M71.48,137.79c-3.12,0-6.24-.06-9.27-.17-3.94-.14-7.78-.38-11.4-.7-3.04-.27-5.93-.6-8.6-.99l-3-.43,2.52-1.67c7.31-4.85,18.16-7.63,29.75-7.63s22.44,2.78,29.75,7.63l2.52,1.67-3,.43c-2.67.39-5.56.72-8.6.99-3.62.32-7.45.56-11.4.7-3.03.11-6.15.17-9.27.17Z"/>
            <path class="cls-2" d="M71.48,127.36c11.77,0,22.27,2.9,29.1,7.43-2.62.38-5.49.71-8.54.98-3.54.31-7.35.55-11.34.69-2.98.11-6.07.16-9.23.16s-6.25-.06-9.23-.16c-3.99-.14-7.79-.38-11.34-.69-3.05-.27-5.91-.6-8.54-.98,6.83-4.53,17.33-7.43,29.1-7.43M71.48,125.04c-11.82,0-22.9,2.85-30.4,7.83l-5.04,3.34,6.01.87c2.69.39,5.6.72,8.67,1,3.64.32,7.5.56,11.46.7,3.05.11,6.18.17,9.31.17s6.26-.06,9.31-.17c3.96-.14,7.82-.38,11.46-.7,3.07-.27,5.98-.61,8.67-1l6.01-.87-5.04-3.34c-7.5-4.97-18.58-7.83-30.4-7.83h0Z"/>
          </g>
          <g>
            <path class="cls-7" d="M71.48,137.79c-3.12,0-6.24-.06-9.27-.17-3.94-.14-7.78-.38-11.4-.7l-4.01-.36,3.58-1.83c5.72-2.92,13.21-4.52,21.1-4.52s15.38,1.61,21.1,4.52l3.58,1.83-4.01.36c-3.62.32-7.45.56-11.4.7-3.03.11-6.15.17-9.27.17Z"/>
            <path class="cls-2" d="M71.48,131.38c7.98,0,15.22,1.67,20.56,4.4-3.54.31-7.35.55-11.34.69-2.98.11-6.07.16-9.23.16s-6.25-.06-9.23-.16c-3.99-.14-7.79-.38-11.34-.69,5.34-2.72,12.58-4.4,20.56-4.4M71.48,129.06c-8.07,0-15.75,1.65-21.64,4.65l-7.16,3.65,8.02.71c3.64.32,7.5.56,11.46.7,3.05.11,6.18.17,9.31.17s6.26-.06,9.31-.17c3.96-.14,7.82-.38,11.46-.7l8.02-.71-7.16-3.65c-5.88-3-13.57-4.65-21.64-4.65h0Z"/>
          </g>
          <g>
            <path class="cls-7" d="M71.48,137.79c-3.12,0-6.24-.06-9.27-.17l-8.35-.3,8.11-1.98c3-.73,6.19-1.1,9.51-1.1s6.51.37,9.51,1.1l8.11,1.98-8.35.3c-3.03.11-6.15.17-9.27.17Z"/>
            <path class="cls-2" d="M71.48,135.4c3.29,0,6.42.38,9.23,1.07-2.98.11-6.07.16-9.23.16s-6.25-.06-9.23-.16c2.81-.69,5.93-1.07,9.23-1.07M71.48,133.08c-3.41,0-6.7.38-9.79,1.13l-16.22,3.96,16.69.6c3.05.11,6.18.17,9.31.17s6.26-.06,9.31-.17l16.69-.6-16.22-3.96c-3.09-.75-6.38-1.13-9.79-1.13h0Z"/>
          </g>
        </g>
        <path class="cls-2" d="M71.48,140.03c-3.12,0-6.25-.06-9.29-.17-3.95-.14-7.8-.38-11.42-.7-3.05-.27-5.96-.6-8.63-.99-2.75-.4-5.26-.85-7.46-1.35-7.61-1.73-11.16-3.86-11.16-6.71,0-2.06,1.55-5.08,14.93-7.47,8.84-1.58,20.57-2.45,33.04-2.45s24.2.87,33.04,2.45c13.38,2.39,14.93,5.41,14.93,7.47,0,2.85-3.55,4.98-11.16,6.71-2.2.5-4.71.96-7.46,1.35-2.67.39-5.58.72-8.63.99-3.63.32-7.47.56-11.42.7-3.04.11-6.16.17-9.29.17ZM26.83,130.13s.68,1.69,8.58,3.49c2.12.48,4.54.92,7.2,1.3,2.61.38,5.46.7,8.45.97,3.57.32,7.35.55,11.25.69,6,.22,12.33.22,18.33,0,3.89-.14,7.68-.37,11.25-.69,2.99-.27,5.83-.59,8.45-.97,2.66-.38,5.08-.82,7.2-1.3,7.5-1.71,8.48-3.31,8.58-3.51-.11-.23-1.46-2.4-12.86-4.35-8.57-1.47-19.85-2.28-31.77-2.28s-23.2.81-31.77,2.28c-11.97,2.05-12.86,4.34-12.87,4.37h0Z"/>
      </g>
      <path class="cls-2" d="M126.16,115.99l-42.94.85-5.09.1-.87.02-5.05.1-.89.02-4.91.1-.81.02-4.7.09-4.63.09c-1.38-.76-.33-1.84-.33-1.84l4.94-.2,4.98-.2.8-.03,5.11-.21,1.08-.04,3.43-.14,49.27-2c1.4,1.39.6,3.28.6,3.28Z"/>
      <g>
        <polygon class="cls-7" points="60.1 134.02 60.1 89.12 67.17 90 67.17 134.02 60.1 134.02"/>
        <path class="cls-2" d="M61.35,90.52l4.58.57v41.7h-4.58v-42.27M58.85,87.72v47.53h9.57v-46.34l-2.18-.27-4.58-.57-2.8-.35h0Z"/>
      </g>
      <g>
        <polygon class="cls-7" points="67.46 134 67.46 90.02 74.49 90.46 74.49 134 67.46 134"/>
        <path class="cls-2" d="M68.69,91.31l4.58.28v41.19h-4.58v-41.47M66.24,88.73v46.48h9.49v-45.89l-2.3-.14-4.58-.28-2.61-.16h0Z"/>
      </g>
      <g>
        <polygon class="cls-7" points="75.36 134 75.36 90.7 82.39 88.6 82.39 134 75.36 134"/>
        <path class="cls-2" d="M81.17,90.23v42.55h-4.58v-41.19l4.58-1.37M83.61,86.98l-3.15.94-4.58,1.37-1.74.52v45.4h9.47v-48.23h0Z"/>
      </g>
      <path class="cls-2" d="M85.54,85.25c-.68-.68-2.12-.83-2.78,0-.27.34-.56.67-.88.98-.13.13-.27.26-.41.38-.09.08-.19.16-.28.24-.02.01-.04.03-.05.04-.36.25-.73.49-1.11.7-.17.09-.33.18-.5.26-.11.05-.21.1-.32.15-.02,0-.05.02-.07.03-.42.15-.83.29-1.26.4-.18.05-.37.09-.55.13-.07.01-.57.1-.51.09-.8.09-1.62.1-2.42,0,.04,0-.35-.06-.43-.08-.22-.04-.43-.09-.64-.15-.18-.05-.36-.1-.54-.16-.08-.03-.71-.27-.41-.14-1.29-.56-2.4-1.11-3.86-.8-.53.11-1.02.35-1.53.51-.18.06-.37.11-.55.15-.07.02-.55.1-.51.11-.41.05-.82.06-1.23.05-.19,0-.38-.02-.57-.04-.03,0-.05,0-.07,0-.12-.02-.24-.04-.35-.06-.5-.1-.99-.25-1.47-.41,0,0-.05-.02-.1-.04-.08-.04-.28-.13-.31-.14-.23-.11-.45-.23-.67-.36-.2-.12-.39-.24-.57-.37.05.03-.17-.14-.28-.23.74-.87,1.32-1.9,1.68-3.07.31-1-.37-2.12-1.37-2.39-1.05-.29-2.11.35-2.42,1.36-.31,1.01-.99,1.97-1.87,2.53-.6.39-.96.53-1.69.69-.44.09-1.34.09-1.75.02-1.04-.2-2.12.29-2.42,1.36-.26.95.33,2.19,1.37,2.39,1.85.36,3.69.14,5.29-.55,2.76,2.67,6.81,3.89,10.63,2.85.53-.14,1.03-.4,1.57-.53.01,0,.13-.01.19-.02.01,0,.02,0,.03,0,.07.02.11.03.12.03.01,0,.03.01.04.02.18.07.34.16.51.24.99.45,2,.81,3.07.99,2.12.35,4.3.24,6.35-.43,2.28-.75,4.41-2.07,5.91-3.95.66-.82.81-1.94,0-2.75Z"/>
      <path class="cls-2" d="M125.72,104.31l-42.69,5.94-5.06.7-.86.12-5.02.7-.88.12-4.88.68-.81.11-4.67.65-4.6.64c-1.43-.59-.46-1.8-.46-1.8l4.9-.79,4.95-.79.8-.13,5.07-.81,1.07-.17,3.4-.54,48.92-7.83c1.5,1.22.83,3.19.83,3.19Z"/>
      <g>
        <path class="cls-7" d="M71.48,138.19c-3.11,0-6.23-.06-9.27-.17-3.95-.14-7.78-.38-11.4-.7l-4.01-.36,3.58-1.83c5.72-2.92,13.21-4.52,21.1-4.52s15.38,1.61,21.1,4.52l3.58,1.83-4.01.36c-3.62.32-7.45.56-11.4.7-3.04.11-6.16.17-9.27.17Z"/>
        <path class="cls-2" d="M71.48,131.78c7.98,0,15.22,1.67,20.56,4.4-3.54.31-7.35.55-11.34.69-2.98.11-6.07.16-9.23.16s-6.25-.06-9.23-.16c-3.99-.14-7.79-.38-11.34-.69,5.34-2.72,12.58-4.4,20.56-4.4M71.48,129.47c-8.07,0-15.75,1.65-21.64,4.65l-7.16,3.65,8.02.71c3.64.32,7.5.56,11.46.7,3.05.11,6.18.17,9.31.17s6.26-.06,9.31-.17c3.96-.14,7.82-.38,11.46-.7l8.02-.71-7.16-3.65c-5.88-3-13.57-4.65-21.64-4.65h0Z"/>
      </g>
      <path class="cls-2" d="M71.48,140.03c-3.12,0-6.25-.06-9.29-.17-3.95-.14-7.8-.38-11.42-.7-3.05-.27-5.96-.6-8.63-.99-2.75-.4-5.26-.85-7.46-1.35-7.61-1.73-11.16-3.86-11.16-6.71s3.51-4.96,11.06-6.69c6.29-1.44,15.14-2.49,24.91-2.96l.16,3.29c-22.33,1.06-32.38,4.68-32.8,6.38h0s.68,1.69,8.58,3.49c2.12.48,4.54.92,7.2,1.3,2.61.38,5.46.7,8.45.97,3.57.32,7.35.55,11.25.69,6,.22,12.33.22,18.33,0,3.89-.14,7.68-.37,11.25-.69,2.99-.27,5.83-.59,8.45-.97,2.66-.38,5.08-.82,7.2-1.3,7.96-1.81,8.58-3.51,8.58-3.53-.32-1.29-8.84-5.26-33.39-6.36l.15-3.29c9.92.45,18.91,1.49,25.32,2.94,7.67,1.74,11.24,3.87,11.24,6.73s-3.55,4.98-11.16,6.71c-2.2.5-4.71.96-7.46,1.35-2.67.39-5.58.72-8.63.99-3.63.32-7.47.56-11.42.7-3.04.11-6.16.17-9.29.17Z"/>
      <g>
        <path class="cls-8" d="M118.23,101.58c2,2.35,1.84,6.02,1.33,9.23-.52,3.31-2.33,6.11-5.39,7.77-3.29,1.79-7.81,2.66-11.52,1.79-6.16-1.44-8.91-10.7-5.69-15.51,1.63-2.43,4.38-3.58,7.17-4.35,3.36-.93,7.52-1.95,11.03-.86,1.35.42,2.35,1.09,3.06,1.93Z"/>
        <path class="cls-2" d="M105.78,122.76c-1.25,0-2.46-.13-3.6-.39-3.32-.77-6.08-3.36-7.57-7.1-1.63-4.08-1.39-8.5.64-11.53,2.11-3.14,5.56-4.43,8.34-5.19,3.82-1.05,8.23-2.07,12.21-.84,1.66.52,3.01,1.38,4.02,2.56h0c2.65,3.11,2.29,7.68,1.79,10.86-.64,4.05-2.92,7.34-6.44,9.25-2.86,1.55-6.23,2.39-9.39,2.39ZM111.79,101.22c-2.3,0-4.81.62-7.1,1.25-3.1.86-4.95,1.94-6.01,3.52-1.26,1.87-1.35,5-.24,7.77.99,2.48,2.7,4.16,4.69,4.63,2.98.69,7.02.05,10.05-1.6,2.4-1.3,3.9-3.48,4.35-6.3.38-2.38.69-5.76-.87-7.6h0c-.5-.59-1.19-1.02-2.1-1.3-.86-.27-1.79-.38-2.76-.38Z"/>
      </g>
      <path class="cls-2" d="M98.84,115.02s4.78,2.95,9.33-1.4c0,0,2.97,5.21,7.51,3.13l-6.5,3.47-7.17-.83-3.76-3.01.6-1.37Z"/>
    </g>
    <g>
      <g>
        <g>
          <g>
            <path class="cls-6" d="M193.15,55.2c-.17-1.53-.3-3.72-.41-6.56l-.17-3.61h-3.23c-2.54,0-6.16.14-10.86.41-4.7.27-7.62.41-8.78.41-.77,0-1.16.16-1.16.49,0,.11-.1.22-.29.33-.19.11-.4.19-.62.25-.55.16-.8.3-.75.41.05.16-.25.44-.91.82-.55.33-.83.55-.83.66s.03.19.08.25c.22.27.11.71-.33,1.31-.33.49-.5.82-.5.98l.17.33c.17.16.23.3.21.41-.03.11-.12.27-.29.49-.28.27-.41.49-.41.66,0,.27.25.57.75.9.22.11.39.23.5.37.11.14.14.23.08.29-.11.16.03.44.41.82.28.22.69.38,1.24.49.55.11,1.52.19,2.9.25l2.32.16c1.16.05,1.74.14,1.74.25l-1.08.16-1.57.16,1.41.25c.83.16,1.16.3.99.41-.28.11-.36.25-.25.41.11.16,1.55.25,4.31.25.61,0,1.04.03,1.28.08.25.05.37.19.37.41,0,.38-.5,1.53-1.49,3.44-.94,1.8-1.93,3.12-2.98,3.94-1.05.82-2.27,1.23-3.65,1.23-.83,0-1.46-.05-1.91-.16-2.04-.33-3.55-1.26-4.52-2.79-.97-1.53-1.73-4.13-2.28-7.79-.28-1.69-.41-4.67-.41-8.94,0-3.83.11-6.83.33-9.02l.33-3.69,5.8.16c.66,0,2.21.06,4.64.16l8.95.25c1.49.06,3.15.08,4.97.08,1.99,0,2.98-.14,2.98-.41,0-.33.08-.52.25-.57.22-.05.41-.63.58-1.72.17-1.09.25-2.27.25-3.53,0-1.64-.11-2.76-.33-3.36-.17-.33-.64-.63-1.41-.9-.61-.16-.91-.3-.91-.41,0-.05.08-.11.25-.16.28-.11.4-.19.37-.25-.03-.05-.24-.14-.62-.25-.17-.05-.29-.12-.37-.21-.08-.08-.07-.12.04-.12s.19-.05.25-.16c.05-.11.08-.22.08-.33,0-.27-.69-.49-2.07-.66-1.38-.16-3.23-.25-5.55-.25-2.6,0-6.02.14-10.28.41-2.65.16-4.92.25-6.8.25-2.38,0-4.78-.11-7.21-.33-.33-.05-.75-.08-1.24-.08-.33,0-.58.04-.75.12s-.33.26-.5.53c-.28.38-.64.57-1.08.57h-.41l-1.08-.08-.75,2.46c-.77,2.46-1.27,4.73-1.49,6.8-.22,2.08-.33,5.49-.33,10.25,0,3.44.04,5.97.12,7.58.08,1.61.26,3.32.54,5.12.66,4.21,1.52,7.68,2.57,10.41,1.05,2.73,2.43,5.03,4.14,6.89,1.44,1.59,2.97,2.82,4.6,3.69,1.63.87,3.6,1.56,5.93,2.05.94.22,2.13.33,3.56.33,2.43,0,4.5-.3,6.22-.9,3.37-1.15,6.22-3.18,8.54-6.11,2.32-2.92,4.03-6.63,5.14-11.11l.75-3.2h2.07l-.17-2.95Z"/>
            <path class="cls-6" d="M168.08,56.88c.08-.03.1-.07.04-.12-.11-.16-.3-.19-.58-.08-.17.16-.08.25.25.25.11,0,.21-.01.29-.04Z"/>
          </g>
          <path class="cls-6" d="M233.84,34.17c-.22-2.21-.59-3.95-1.12-5.21-.53-1.26-1.31-2.35-2.36-3.28-.88-.76-1.92-1.39-3.11-1.89-1.19-.49-2.67-.9-4.43-1.23-.88-.11-2.82-.16-5.8-.16-4.97,0-8.37.08-10.19.25-.94,0-1.85-.05-2.73-.16-1.38-.11-2.39-.08-3.02.08-.64.16-1.01.49-1.12.98-.17.49-.33.57-.5.25-.11-.22-.25-.22-.41,0-.06.16-.3.19-.75.08-.22-.05-.4.01-.54.21-.14.19-.32.61-.54,1.27-.94,3.28-1.41,8.42-1.41,15.41,0,3.72.11,7.35.33,10.9.22,3.83.4,6.37.54,7.62.14,1.26.4,2.71.79,4.34.88,4.1,2.62,7.41,5.22,9.92,2.6,2.51,5.88,4.15,9.86,4.92,1.66.27,3.34.41,5.05.41s3.56-.14,5.39-.41c1.88-.33,2.95-.44,3.23-.33.22.11.33.08.33-.08,0-.27.15-.38.46-.33.3.06.48.22.54.49,0,.27.08.22.25-.16.17-.6.52-.9,1.08-.9.39,0,.69.16.91.49.11.22.21.33.29.33s.12-.11.12-.33c0-.33.5-.87,1.49-1.64.99-.77,1.49-1.23,1.49-1.39,0-.11-.17-.16-.5-.16-.5,0-.75-.08-.75-.25,0-.22.28-.6.83-1.15.55-.66.83-1.04.83-1.15l-.08-.08c-.22-.11-.32-.29-.29-.53.03-.25.15-.4.37-.45.17,0,.14-.08-.08-.25-.22-.27-.3-.44-.25-.49.17-.16.3-1.64.41-4.43.17-3.99.33-6.97.5-8.94.11-2.73.17-5.74.17-9.02v-3.94c-.11-4.21-.28-7.42-.5-9.63ZM222.24,55.69l-.17,11.48-2.9.08c-2.1,0-3.48-.08-4.14-.25-1.55-.38-2.8-1.03-3.77-1.93-.97-.9-1.62-2.04-1.95-3.4-.22-.87-.33-5.25-.33-13.12,0-5.85.08-9.43.25-10.74l.25-1.72,1.57-.16c1.33-.11,3.04-.22,5.14-.33,2.43-.11,3.76-.22,3.98-.33.28-.11.61-.05.99.16.77.44,1.16,4.92,1.16,13.45,0,2.84-.03,5.11-.08,6.8Z"/>
          <path class="cls-6" d="M275.69,73.73c-.17-.44-.51-.92-1.04-1.43-.53-.52-1.06-.94-1.62-1.27-.5-.27-.57-.4-.21-.37.36.03.81.18,1.37.45.5.27.75.38.75.33l-.25-.33c-.39-.49-1.63-1.13-3.73-1.93-2.1-.79-3.87-1.32-5.3-1.6-.88-.22-2.71-.45-5.47-.7-2.76-.25-4.56-.37-5.39-.37-.99,0-1.49-.08-1.49-.25l.58-2.46c.72-2.84,1.38-7.08,1.99-12.71.17-2.08.25-4.13.25-6.15,0-6.34-.88-12.13-2.65-17.38-.5-1.48-.91-2.65-1.24-3.53-.33-.87-.59-1.39-.79-1.56-.19-.16-.54-.25-1.04-.25-.66-.05-1.86.18-3.61.7-1.74.52-3.02,1.02-3.85,1.52-.5.27-.8.52-.91.74-.11.22-.17.6-.17,1.15,0,.11-.01.3-.04.57-.03.27-.1.41-.21.41l-.08-.16c-.06-.16-.12-.22-.21-.16-.08.06-.18.16-.29.33-.22.33-.41.49-.58.49-.39-.05-.19,1.61.58,5,.61,2.51,1.06,4.48,1.37,5.9.3,1.42.57,2.79.79,4.1.22,1.31.33,3.06.33,5.25,0,2.62-.19,5.4-.58,8.32-.39,2.92-.94,5.59-1.66,7.99-.55,1.91-1.01,3.2-1.37,3.85-.36.66-1.15,1.56-2.36,2.71l-2.4,2.21.5,1.23c.28.87.61,1.5.99,1.89.72.71,1.41,1.59,2.07,2.62.17.22.55.57,1.16,1.07l1.41.82c.33.16.72.14,1.16-.08l1.33-.66c.44-.16.52-.08.25.25-.28.33-.32.52-.12.57.19.05.46-.05.79-.33.33-.27.41-.27.25,0-.11.11-.18.23-.21.37-.03.14-.01.23.04.29.17.16.33.22.5.16.17-.05.44-.25.83-.57.55-.38,1.05-.57,1.49-.57.28,0,1.46-.22,3.56-.66,1.93-.38,4.14-.57,6.63-.57,2.04,0,3.48.04,4.31.12.83.08,2.71.4,5.64.94,2.32.44,3.67.66,4.06.66.22,0,.5-.06.83-.16.5-.22.75-.38.75-.49,0-.05-.06-.19-.17-.41-.17-.33-.25-.55-.25-.66s.08-.2.25-.29.39-.18.66-.29c.33-.11.58-.23.75-.37.17-.14.22-.26.17-.37-.11-.27-.06-.46.17-.57.05-.05.08-.19.08-.41v-.49c0-.33.17-.66.5-.98.28-.38.41-.63.41-.74,0-.16-.08-.41-.25-.74Z"/>
          <path class="cls-6" d="M320.06,22.82c-.19-.16-.51-.33-.95-.49-.66-.22-1.42-.37-2.28-.45-.86-.08-1.98-.15-3.36-.21-2.43,0-3.65.36-3.65,1.07,0,.27-.07.49-.21.66-.14.16-.32.25-.54.25l-.33-.16c-.11-.11-.21-.16-.29-.16s-.12.08-.12.25c0,.11-.03.18-.08.21-.06.03-.11.01-.17-.04-.06-.05-.15-.05-.29,0-.14.06-.29.16-.46.33-.22.22-.99.33-2.32.33-1.71,0-3.34-.03-4.89-.08l-7.13-.16c-.11,0-.19-.07-.25-.21-.06-.14-.08-.31-.08-.53,0-.98-1.44-1.61-4.31-1.89-.66-.05-1.55-.08-2.65-.08-2.21,0-3.31.38-3.31,1.15,0,.22-.11.52-.33.9-.22.38-.39.57-.5.57-.06,0-.08-.05-.08-.16,0-.27-.1-.38-.29-.33-.19.05-.29.22-.29.49,0,.11-.03.19-.08.25-.06.06-.08.03-.08-.08-.11-.33-.3-.45-.58-.37-.28.08-.44.32-.5.7l-.33,3.85c-.17,1.2-.25,2.41-.25,3.61s.08,2.87.25,5.16c.22,4.05.33,7.9.33,11.56.05,2.68.14,4.82.25,6.44.11,1.61.3,3.68.58,6.19.11,1.09.36,1.89.75,2.38.33.38.58.57.75.57.11,0,.28-.05.5-.16.28-.16.47-.25.58-.25s.25.11.41.33c.39.27.63.41.75.41.22,0,.33.19.33.57.05.33.11.33.17,0,.11-.38.28-.57.5-.57s.36.16.41.49c.11.22.19.3.25.25s.11-.19.17-.41c.17-.33.36-.49.58-.49.17,0,.3.03.41.08.39.11.69.27.91.49.17.22.33.16.5-.16l.66-.9c.22-.22.51-.75.87-1.6.36-.85.59-1.57.7-2.17.05-.27.08-.03.08.74-.11.93-.06,1.39.17,1.39.05,0,.17-.3.33-.9.11-.66.28-4.4.5-11.23.22-7.21.39-11.04.5-11.48.11-.6.23-.96.37-1.07.14-.11.62-.19,1.45-.25,1.27-.11,2.29-.25,3.07-.41,1.05-.22,2.76-.38,5.14-.49l3.81-.25.25,3.2c.11,2.3.17,3.91.17,4.84,0,6.94-1.11,12.19-3.31,15.74-3.09,4.7-8.87,7.98-17.32,9.84-1.93.38-3.2.67-3.81.86-.61.19-1.19.45-1.74.78l-1.08.66.99.25c.66.16.99.38.99.66,0,.16-.25.25-.75.25-.55,0-.86.19-.91.57-.11.38-.36.57-.75.57-.17.05-.19.11-.08.16.28.11.39.32.33.61-.06.3-.22.45-.5.45-.17,0-.21.04-.12.12s.23.15.46.21c.5.16.75.46.75.9,0,.38-.25.71-.75.98-.28.16-.32.3-.12.41.19.11.59.25,1.2.41,2.32.66,4.47.98,6.46.98,1.33,0,2.43-.11,3.31-.33.39-.11.41-.05.08.16-.39.16-1.44.35-3.15.57l-1.99.16c0,.05.25.11.75.16.33.05.83.08,1.49.08,2.82,0,6.12-.63,9.9-1.89,3.78-1.26,6.86-2.76,9.24-4.51,7.73-5.68,12.07-14.4,13.01-26.15.17-1.53.4-5.29.7-11.27.3-5.98.48-10.42.54-13.32,0-.22-.1-.41-.29-.57Z"/>
          <path class="cls-6" d="M362.03,26.59c.39.55.47.82.25.82s-.43.22-.62.66c-.19.44-.21.77-.04.98.28.22.28.47,0,.74-.28.22-.25.44.08.66.22.16.22.25,0,.25-.28,0-.59.23-.95.7-.36.46-.51.83-.46,1.11.11.44-.01.74-.37.9-.36.16-1.3.27-2.82.33-1.52.05-3.55.08-6.09.08-5.69,0-8.62.08-8.78.25-.11.11-.06,1.15.17,3.12.22,1.86.41,4.21.58,7.05,0,.11.58.16,1.74.16,1.6,0,3.48.08,5.63.25l3.9.16-.25,6.56c-.06,1.69-.11,3.14-.17,4.35-.06,1.2-.08,1.97-.08,2.3l-5.39-.25c-3.54-.22-5.36-.27-5.47-.16-.11,0-.28,1.31-.5,3.94-.17,2.02-.33,3.64-.5,4.84l-.08.49c0,.16.12.29.37.37.25.08.62.15,1.12.2.94.16,3.56.25,7.87.25s6.33.08,6.38.25l.08.08c0,.11-.28.16-.83.16-.61,0-.97.06-1.08.16-.06.05,0,.11.17.16.17.05.36.08.58.08.55,0,1.1.11,1.66.33.55.33,1.02.71,1.41,1.15.39.44.5.68.33.74-.22.16-.33.41-.33.74,0,.55.17.93.5,1.15.17.06.28.12.33.21.05.08.03.12-.08.12s-.21.1-.29.29c-.08.19-.1.4-.04.61,0,.55-.11.98-.33,1.31-.17.16-.24.3-.21.41.03.11.12.22.29.33.17.16.25.3.25.41,0,.98-1.04,1.74-3.11,2.25-2.07.52-5.84.97-11.31,1.35-4.86.22-8.04.33-9.53.33-1.6,0-2.46-.05-2.57-.16-.06-.06-.86-.19-2.4-.41-.72-.11-1.28-.22-1.7-.33-.41-.11-.62-.25-.62-.41,0-.33-.11-.55-.33-.66-.17-.16-.11-.33.17-.49.11-.11.17-.19.17-.25,0-.11-.22-.25-.66-.41-.28-.11-.54-.22-.79-.33-.25-.11-.43-.19-.54-.25-.28-.16-.5-.71-.66-1.64-.17-.93-.19-1.94-.08-3.03l.25-2.38c0-.27.22-.9.66-1.89.28-.6.51-.96.7-1.07.19-.11.57-.16,1.12-.16h1.24l.25-2.46c.17-1.8.25-4.86.25-9.18,0-2.3-.06-4.48-.17-6.56-.06-1.15-.39-3.8-.99-7.95l-.91-5.08-.99-.08c-.28-.05-.53-.11-.75-.16-.22-.05-.3-.11-.25-.16.11-.16,0-.35-.33-.57-.17-.11-.25-.19-.25-.25s.08-.14.25-.25l.17-.16c0-.16-.33-.33-.99-.49-.61-.22-1.01-.42-1.2-.62-.19-.19-.4-.59-.62-1.19-.39-1.15-.58-2.65-.58-4.51,0-1.04.11-1.99.33-2.87.17-.55.33-.9.5-1.07.17-.16.52-.27,1.08-.33,3.65-.49,9.94-.74,18.89-.74,5.86,0,9.5.14,10.94.41,1.6.27,2.78.52,3.52.74.75.22,1.39.46,1.95.74l.83.49-1.33-.16-1.08-.08.66.33c.72.38,1.27.71,1.66.98.44.38.86.85,1.24,1.39ZM325.16,33.48c.11.11-.03.16-.41.16-.11,0-.19-.03-.25-.08-.06-.05-.03-.08.08-.08.28-.11.47-.11.58,0ZM327.89,33.48c-.17-.11-.36-.11-.58,0-.11,0-.14.03-.08.08.05.06.14.08.25.08.39,0,.52-.05.41-.16ZM342.97,55.61h.66c.5,0,.66-.03.5-.08-.33-.11-.69-.11-1.08,0-.06,0-.08.03-.08.08ZM344.63,55.86l2.15.16c1.55.11,2.85.16,3.9.16h1.82l-2.15-.16c-1.16-.16-2.46-.25-3.89-.25l-1.82.08Z"/>
          <path class="cls-6" d="M406.37,39.75c.22,7.79.33,15.29.33,22.5,0,7.6-.14,11.89-.41,12.87-.28.77-.83,1.57-1.66,2.42-.83.85-1.6,1.38-2.32,1.6-.5.16-1.05.25-1.66.25-1.16,0-2.53-.34-4.1-1.02-1.57-.68-3.52-1.79-5.84-3.32-1.71-1.09-3.84-2.9-6.38-5.41-2.54-2.51-4.53-4.78-5.97-6.8l-2.24-3.12-.25,1.31-.5,4.43c-.28,2.13-.62,4.3-1.04,6.52-.41,2.21-.82,3.79-1.2,4.71-.33.93-.55,1.39-.66,1.39-.06,0-.08-.05-.08-.16,0-.33.11-.82.33-1.48.33-1.2.5-1.94.5-2.21v-.08c-.11,0-.3.44-.58,1.31-.55,1.86-1.52,3.58-2.9,5.16-.72.66-1.08.82-1.08.49s-.21-.6-.62-.82c-.41-.22-.73-.22-.95,0-.17.27-.44.27-.83,0-.39-.16-.58-.14-.58.08,0,.11-.04.14-.12.08-.08-.05-.15-.16-.21-.33-.06-.16-.14-.32-.25-.45-.11-.14-.22-.21-.33-.21-.17,0-.25-.27-.25-.82,0-.38-.04-.59-.12-.62-.08-.03-.26.1-.54.37-.22.22-.44.33-.66.33-.39,0-.61-.6-.66-1.8v-.16c.33-1.53.5-3.44.5-5.74,0-.11-.03-.19-.08-.25.11-.93.28-2.76.5-5.49.28-3.44.41-7.43.41-11.97,0-6.07-.3-10.85-.91-14.35-.22-1.26-.39-3.8-.5-7.62-.06-1.31-.08-2.71-.08-4.18,0-.82.04-1.3.12-1.43.08-.14.23-.18.46-.12h.25c.22,0,.41-.11.58-.33.11-.22.18-.31.21-.29.03.03.1.15.21.37.11.27.19.41.25.41.05-.05.1-.15.12-.29.03-.14.07-.29.12-.45.11-.6.25-.98.41-1.15.44-.27,1.24-.49,2.4-.66s2.37-.25,3.65-.25c1.82.06,2.97.12,3.44.21.47.08.7.23.7.45,0,.27.3.41.91.41.5,0,1.08.06,1.74.16.44.11.73.27.87.49.14.22.23.88.29,1.97.11,1.31.36,3.13.75,5.45.39,2.32.75,4.19,1.08,5.62.61,2.57,1.55,5.42,2.82,8.57,1.27,3.14,2.49,5.59,3.65,7.34.77,1.26,1.81,2.72,3.11,4.39,1.3,1.67,2.28,2.83,2.94,3.48l1.08.98.17-2.95c.22-3.82.36-8.12.41-12.87.11-6.78.3-11.29.58-13.53l.41-3.61-.17,4.51c-.11,2.68-.08,4.46.08,5.33.11.33.21.12.29-.62.08-.74.15-1.82.21-3.24.11-3.06.3-5.56.58-7.5.28-1.94.75-3.76,1.41-5.45.17-.49.29-.81.37-.94.08-.14.15.01.21.45.05.44.26.81.62,1.11.36.3.62.34.79.12.11-.05.28-.55.5-1.48.11-.71.17-.82.17-.33.11.71.28,1.09.5,1.15l.17.08c.22,0,.33-.38.33-1.15.05-.71.11-.85.17-.41.05.6.21,1.18.46,1.72.25.55.46.82.62.82s.25.46.25,1.39c0,.55.01.89.04,1.02.03.14.15.04.37-.29.33-.55.5-1.04.5-1.48,0-.33.05-.49.17-.49.17,0,.33.15.5.45.17.3.28.67.33,1.11.33,1.75.61,6.52.83,14.31ZM364.19,26.76c-.11.22-.19.7-.25,1.43-.06.74-.03,1.03.08.86,0-.05.03-.19.08-.41.05-.22.11-.55.17-.98.05-.87.03-1.17-.08-.9Z"/>
        </g>
        <g>
          <path class="cls-6" d="M196.78,86.58c.19.16.29.36.29.57-.06,2.9-.24,7.34-.54,13.32-.3,5.98-.54,9.74-.7,11.27-.94,11.75-5.28,20.47-13.01,26.15-2.38,1.75-5.46,3.25-9.24,4.51-3.78,1.26-7.09,1.89-9.9,1.89-.66,0-1.16-.03-1.49-.08-.5-.05-.75-.11-.75-.16l1.99-.16c1.71-.22,2.76-.41,3.15-.57.33-.22.3-.27-.08-.16-.88.22-1.99.33-3.31.33-1.99,0-4.14-.33-6.46-.98-.61-.16-1.01-.3-1.2-.41-.19-.11-.15-.25.12-.41.5-.27.75-.6.75-.98,0-.44-.25-.74-.75-.9-.22-.05-.37-.12-.46-.21-.08-.08-.04-.12.12-.12.28,0,.44-.15.5-.45.05-.3-.06-.5-.33-.61-.11-.05-.08-.11.08-.16.39,0,.63-.19.75-.57.05-.38.36-.57.91-.57.5,0,.75-.08.75-.25,0-.27-.33-.49-.99-.66l-.99-.25,1.08-.66c.55-.33,1.13-.59,1.74-.78.61-.19,1.88-.48,3.81-.86,8.45-1.86,14.22-5.14,17.32-9.84,2.21-3.55,3.31-8.8,3.31-15.74,0-.93-.06-2.54-.17-4.84l-.25-3.2-3.81.25c-2.38.11-4.09.27-5.14.49-.77.16-1.8.3-3.07.41-.83.05-1.31.14-1.45.25-.14.11-.26.47-.37,1.07-.11.44-.28,4.26-.5,11.48-.22,6.83-.39,10.58-.5,11.23-.17.6-.28.9-.33.9-.22,0-.28-.46-.17-1.39,0-.77-.03-1.01-.08-.74-.11.6-.35,1.33-.7,2.17-.36.85-.65,1.38-.87,1.6l-.66.9c-.17.33-.33.38-.5.16-.22-.22-.53-.38-.91-.49-.11-.05-.25-.08-.41-.08-.22,0-.41.16-.58.49-.06.22-.11.36-.17.41-.06.06-.14-.03-.25-.25-.06-.33-.19-.49-.41-.49s-.39.19-.5.57c-.06.33-.11.33-.17,0,0-.38-.11-.57-.33-.57-.11,0-.36-.14-.75-.41-.17-.22-.3-.33-.41-.33s-.3.08-.58.25c-.22.11-.39.16-.5.16-.17,0-.41-.19-.75-.57-.39-.49-.64-1.28-.75-2.38-.28-2.51-.47-4.58-.58-6.19-.11-1.61-.19-3.76-.25-6.44,0-3.66-.11-7.51-.33-11.56-.17-2.3-.25-4.02-.25-5.17s.08-2.4.25-3.61l.33-3.85c.05-.38.22-.61.5-.7.28-.08.47.04.58.37,0,.11.03.14.08.08.05-.05.08-.14.08-.25,0-.27.1-.44.29-.49.19-.05.29.06.29.33,0,.11.03.16.08.16.11,0,.28-.19.5-.57.22-.38.33-.68.33-.9,0-.77,1.1-1.15,3.31-1.15,1.1,0,1.99.03,2.65.08,2.87.27,4.31.9,4.31,1.89,0,.22.03.4.08.53.05.14.14.2.25.2l7.13.16c1.55.06,3.18.08,4.89.08,1.33,0,2.1-.11,2.32-.33.17-.16.32-.27.46-.33.14-.05.23-.05.29,0,.05.06.11.07.17.04.05-.03.08-.1.08-.21,0-.16.04-.25.12-.25s.18.05.29.16l.33.16c.22,0,.4-.08.54-.25.14-.16.21-.38.21-.66,0-.71,1.21-1.07,3.65-1.07,1.38.06,2.5.12,3.36.21.86.08,1.62.23,2.28.45.44.16.76.33.95.49ZM157.87,91.26c-.06-.16-.1-.2-.12-.12-.03.08-.04.23-.04.45s.01.4.04.53c.03.14.07.15.12.04.11-.33.11-.63,0-.9ZM158.21,89.99c0-.14-.03-.26-.08-.37-.06-.11-.1-.12-.12-.04-.03.08-.04.2-.04.37s.01.3.04.41c.03.11.07.11.12,0,.05-.11.08-.23.08-.37Z"/>
          <path class="cls-6" d="M239.83,134.22c.22.38.25.63.08.74-.33.22-.44.46-.33.74.11.27,0,.33-.33.16-.33-.11-.47-.08-.41.08l.5.98c.17.33.25.57.25.74s-.08.4-.25.7c-.17.3-.3.53-.41.7-.61.82-1.56,1.86-2.86,3.12-1.3,1.26-2.14,1.94-2.53,2.05-.44.11-.72.27-.83.49-.06.11-1.08-.77-3.07-2.62-1.99-1.86-4.23-3.99-6.71-6.39-6.35-6.18-9.61-9.26-9.78-9.26-.06.38-.11,1.18-.17,2.38-.06,1.2-.08,2.68-.08,4.43s-.03,3.47-.08,5c-.06,1.53-.14,2.43-.25,2.71l-.17.49c-.06,0-.11-.38-.17-1.15v-1.48l-.25,1.23c-.39,1.53-.99,2.84-1.82,3.94-.17.22-.32.36-.46.41-.14.05-.23,0-.29-.16-.06-.33-.36-.49-.91-.49-.5,0-.83.16-.99.49-.22.38-.33.44-.33.16s-.22-.36-.66-.25h-.17c-.28,0-.66-.19-1.16-.57-.28-.33-.48-.51-.62-.53-.14-.03-.29.07-.46.29-.28.27-.5.41-.66.41-1.05,0-1.82-3.36-2.32-10.08l-.17-2.79-.5-7.38-.5-8.03c-.06-.49-.08-1.37-.08-2.62s.03-2.21.08-2.71c.22-2.19.39-3.54.5-4.06.11-.52.28-.72.5-.61.28.11.47.03.58-.25.11-.27.25-.25.41.08.11.11.19.16.25.16.22,0,.5-.55.83-1.64.28-.66,1.63-.98,4.06-.98,1.55,0,2.61.04,3.19.12.58.08,1.15.23,1.7.45l.83.25c.33.11.52.34.58.7.05.36.08,1.49.08,3.4v1.72c0,1.48.03,2.24.08,2.3.11.11.95-.44,2.53-1.64,1.57-1.2,2.83-2.27,3.77-3.2.88-.93,1.75-2.09,2.61-3.48.86-1.39,1.42-2.55,1.7-3.48l.17-.66-3.65.16c-1.71.11-4.28.16-7.71.16-3.98,0-6.74-.11-8.29-.33-1.33-.16-2.21-.34-2.65-.53-.44-.19-.58-.42-.41-.7.11-.11.03-.16-.25-.16s-.28-.14,0-.41c.05-.05.08-.19.08-.41,0-.16-.08-.33-.25-.49-.17-.16-.36-.25-.58-.25-.72,0-1.08-1.07-1.08-3.2,0-1.8.04-3.02.12-3.65.08-.63.26-1.41.54-2.34l.41-1.31,3.65.25c4.14.16,9.5.33,16.08.49,8.4.22,12.82.41,13.26.57.55.22,1.12.61,1.7,1.19s1.04,1.22,1.37,1.93c.22.38.37.74.46,1.07.08.33.12.79.12,1.39,0,10.6-3.95,18.91-11.85,24.92l-2.24,1.72,1.41,1.23c2.93,2.51,5.3,4.45,7.13,5.82,1.88,1.37,3.18,2.35,3.9,2.95.72.6,1.6,1.53,2.65,2.79.83.98,1.35,1.67,1.57,2.05ZM202.04,106.83c-.11.38-.19.94-.25,1.68-.06.74-.03,1.05.08.94l.25-1.8c.05-.93.03-1.2-.08-.82ZM205.02,97.57c-.44-.16-.88-.25-1.33-.25-.55,0-.5.08.17.25.83.16,1.27.25,1.33.25.5,0,.44-.08-.17-.25ZM238.17,134.54c-.44-.66-.83-1.07-1.16-1.23-.33-.27-.36-.22-.08.16.99,1.26,1.57,1.89,1.74,1.89.05,0-.11-.27-.5-.82Z"/>
          <g>
            <path class="cls-6" d="M284.29,135.57c-.58-.46-1.4-1-2.44-1.6-1.05-.6-2.02-1.09-2.9-1.48-.39-.11-.54-.18-.46-.2.08-.03.29-.01.62.04.33.06.75.16,1.24.33.61.16.91.22.91.16,0-.11-.64-.46-1.91-1.07-1.22-.55-2.18-1.24-2.9-2.09-.72-.85-1.38-2.06-1.99-3.65-.83-2.24-1.35-4.22-1.57-5.94-.22-1.72-.33-4.69-.33-8.89v-3.36c0-7.54.08-12.57.25-15.08l.17-4.67-.91-.16c-.55-.11-.99-.33-1.33-.66-.17-.27-1.41-.41-3.73-.41l-8.2.16c-7.57.11-11.85.22-12.84.33-.72.06-1.22.19-1.49.41-.28.22-.47.6-.58,1.15-.06.22-.12.37-.21.45s-.18.04-.29-.12c-.17-.33-.36-.22-.58.33-.17.44-.28.52-.33.25,0-.38-.14-.57-.41-.57s-.55,1.01-.83,3.03c-.28,2.08-.41,4.13-.41,6.15,0,1.69.14,4.78.41,9.26.22,4.37.33,8.53.33,12.46.05,5.79.23,10.74.54,14.84.3,4.1.7,6.7,1.2,7.79.33.71.58,1.07.75,1.07s.33-.19.5-.57l.41-.66c.05,0,.17.14.33.41.5.93,1.02,1.39,1.57,1.39h.25c.33-.05.5.08.5.41,0,.22.04.3.12.25.08-.06.18-.19.29-.41.28-.44.58-.66.91-.66.44,0,.77.19.99.57.17.22.44.04.83-.53.39-.57.75-1.37,1.08-2.38.33-1.01.52-1.93.58-2.75.05-.87.14-1.31.25-1.31.17,0,.19.85.08,2.54v1.39l.25-1.23c.22-.93.39-2.92.5-5.98l.25-4.84h9.12l1.33,2.87c.94,1.91,2.13,3.61,3.56,5.08,1.44,1.48,3.01,2.62,4.72,3.44.94.49,2.18.9,3.73,1.23,1.55.33,2.82.49,3.81.49.44,0,.75-.03.91-.08.44-.11.83-.25,1.16-.41.28-.05.4-.12.37-.2-.03-.08-.21-.31-.54-.7l-.66-.74h.75c.5,0,.88-.14,1.16-.41.11-.11.23-.22.37-.33.14-.11.29-.16.46-.16.44,0,.41-.08-.08-.25-.22-.05-.35-.12-.37-.2-.03-.08.07-.23.29-.45.22-.16.33-.3.33-.41s-.11-.22-.33-.33c-.17-.11-.26-.23-.29-.37-.03-.14.04-.34.21-.61.11-.16.25-.31.41-.45.17-.14.3-.21.41-.21.39,0,.29-.23-.29-.7ZM257.07,116.43l-3.23.08.25-8.03c.11-5.41.22-8.17.33-8.28.11-.16.88-.25,2.32-.25h2.24l.33,3.69c.28,3.06.44,5.49.5,7.3.11,2.3.22,3.83.33,4.59l.08.74-3.15.16Z"/>
            <path class="cls-6" d="M243.56,88.55c.17-.05.19-.25.08-.57-.06-.11-.11-.14-.17-.08-.06.06-.08.14-.08.25,0,.38.05.52.17.41Z"/>
          </g>
          <g>
            <path class="cls-6" d="M297.05,120.65c.08-.03.1-.07.04-.12-.11-.16-.3-.19-.58-.08-.17.16-.08.25.25.25.11,0,.21-.01.29-.04Z"/>
            <path class="cls-6" d="M322.12,118.97c-.17-1.53-.3-3.72-.41-6.56l-.17-3.61h-3.23c-2.54,0-6.16.14-10.86.41-4.7.27-7.62.41-8.78.41-.77,0-1.16.16-1.16.49,0,.11-.1.22-.29.33-.19.11-.4.19-.62.25-.55.16-.8.3-.75.41.05.16-.25.44-.91.82-.55.33-.83.55-.83.66s.03.19.08.25c.22.27.11.71-.33,1.31-.33.49-.5.82-.5.98l.17.33c.17.16.23.3.21.41-.03.11-.12.27-.29.49-.28.27-.41.49-.41.66,0,.27.25.57.75.9.22.11.39.23.5.37.11.14.14.23.08.29-.11.16.03.44.41.82.28.22.69.38,1.24.49.55.11,1.52.19,2.9.25l2.32.16c1.16.06,1.74.14,1.74.25l-1.08.16-1.57.16,1.41.25c.83.16,1.16.3.99.41-.28.11-.36.25-.25.41.11.16,1.55.25,4.31.25.61,0,1.04.03,1.28.08.25.05.37.19.37.41,0,.38-.5,1.53-1.49,3.44-.94,1.8-1.93,3.12-2.98,3.94-1.05.82-2.27,1.23-3.65,1.23-.83,0-1.46-.05-1.91-.16-2.04-.33-3.55-1.26-4.52-2.79-.97-1.53-1.73-4.13-2.28-7.79-.28-1.69-.41-4.67-.41-8.94,0-3.82.11-6.83.33-9.02l.33-3.69,5.8.16c.66,0,2.21.05,4.64.16l8.95.25c1.49.05,3.15.08,4.97.08,1.99,0,2.98-.14,2.98-.41,0-.33.08-.52.25-.57.22-.05.41-.63.58-1.72.17-1.09.25-2.27.25-3.53,0-1.64-.11-2.76-.33-3.36-.17-.33-.64-.63-1.41-.9-.61-.16-.91-.3-.91-.41,0-.05.08-.11.25-.16.28-.11.4-.19.37-.25-.03-.05-.24-.14-.62-.25-.17-.05-.29-.12-.37-.21-.08-.08-.07-.12.04-.12s.19-.05.25-.16c.05-.11.08-.22.08-.33,0-.27-.69-.49-2.07-.66-1.38-.16-3.23-.25-5.55-.25-2.6,0-6.02.14-10.28.41-2.65.16-4.92.25-6.8.25-2.38,0-4.78-.11-7.21-.33-.33-.05-.75-.08-1.24-.08-.33,0-.58.04-.75.12-.17.08-.33.26-.5.53-.28.38-.64.57-1.08.57h-.41l-1.08-.08-.75,2.46c-.77,2.46-1.27,4.73-1.49,6.8-.22,2.08-.33,5.49-.33,10.25,0,3.44.04,5.97.12,7.58.08,1.61.26,3.32.54,5.12.66,4.21,1.52,7.68,2.57,10.41,1.05,2.73,2.43,5.03,4.14,6.89,1.44,1.59,2.97,2.82,4.6,3.69,1.63.87,3.6,1.56,5.92,2.05.94.22,2.13.33,3.56.33,2.43,0,4.5-.3,6.22-.9,3.37-1.15,6.21-3.18,8.54-6.11,2.32-2.92,4.03-6.63,5.14-11.11l.75-3.2h2.07l-.17-2.95Z"/>
          </g>
          <path class="cls-6" d="M362.22,133.89c-.06.05.03.22.25.49.22.16.25.25.08.25-.22.05-.35.2-.37.45-.03.25.07.42.29.53l.08.08c0,.11-.28.49-.83,1.15-.55.55-.83.93-.83,1.15,0,.16.25.25.75.25.33,0,.5.05.5.16,0,.16-.5.63-1.49,1.39-.99.77-1.49,1.31-1.49,1.64,0,.22-.04.33-.12.33s-.18-.11-.29-.33c-.22-.33-.53-.49-.91-.49-.55,0-.91.3-1.08.9-.17.38-.25.44-.25.16-.06-.27-.24-.44-.54-.49-.3-.05-.46.06-.46.33,0,.16-.11.19-.33.08-.28-.11-1.35,0-3.23.33-1.82.27-3.62.41-5.39.41s-3.4-.14-5.05-.41c-3.98-.77-7.26-2.4-9.86-4.92-2.6-2.51-4.34-5.82-5.22-9.92-.39-1.64-.65-3.09-.79-4.35-.14-1.26-.32-3.8-.54-7.62-.22-3.55-.33-7.19-.33-10.9,0-7,.47-12.13,1.41-15.41.22-.66.4-1.08.54-1.27.14-.19.32-.26.54-.2.44.11.69.08.75-.08.17-.22.3-.22.41,0,.17.33.33.25.5-.25.11-.49.48-.82,1.12-.98.63-.16,1.64-.19,3.02-.08.88.11,1.8.16,2.73.16,1.82-.16,5.22-.25,10.19-.25,2.98,0,4.92.06,5.8.16,1.77.33,3.24.74,4.43,1.23,1.19.49,2.22,1.12,3.11,1.89,1.05.93,1.84,2.02,2.36,3.28.52,1.26.9,2.99,1.12,5.21.22,2.21.39,5.43.5,9.63v3.94c0,3.28-.06,6.29-.17,9.02-.17,1.97-.33,4.95-.5,8.94-.11,2.79-.25,4.26-.41,4.43ZM327.67,90.44c.05-.05.14-.22.25-.49.11-.27.17-.52.17-.74,0-.16-.08-.11-.25.16-.17.22-.25.52-.25.9,0,.11.03.16.08.16ZM351.29,112.66c0-8.53-.39-13.01-1.16-13.45-.39-.22-.72-.27-.99-.16-.22.11-1.55.22-3.98.33-2.1.11-3.81.22-5.14.33l-1.57.16-.25,1.72c-.17,1.31-.25,4.89-.25,10.74,0,7.87.11,12.24.33,13.12.33,1.37.98,2.5,1.95,3.4.97.9,2.22,1.55,3.77,1.93.66.16,2.04.25,4.14.25l2.9-.08.17-11.48c.05-1.69.08-3.96.08-6.8ZM361.89,133.48c0-.38-.06-.57-.17-.57,0,.06-.03.12-.08.21-.06.08-.11.2-.17.37-.06.16-.07.3-.04.41.03.11.07.16.12.16.22,0,.33-.19.33-.57Z"/>
          <path class="cls-6" d="M409.79,103.51c.22,7.79.33,15.29.33,22.5,0,7.6-.14,11.89-.41,12.87-.28.77-.83,1.57-1.66,2.42-.83.85-1.6,1.38-2.32,1.6-.5.16-1.05.25-1.66.25-1.16,0-2.53-.34-4.1-1.02-1.57-.68-3.52-1.79-5.84-3.32-1.71-1.09-3.84-2.9-6.38-5.41-2.54-2.51-4.53-4.78-5.97-6.8l-2.24-3.12-.25,1.31-.5,4.43c-.28,2.13-.62,4.3-1.04,6.52-.41,2.21-.82,3.79-1.2,4.71-.33.93-.55,1.39-.66,1.39-.06,0-.08-.05-.08-.16,0-.33.11-.82.33-1.48.33-1.2.5-1.94.5-2.21v-.08c-.11,0-.3.44-.58,1.31-.55,1.86-1.52,3.58-2.9,5.16-.72.66-1.08.82-1.08.49s-.21-.6-.62-.82c-.41-.22-.73-.22-.95,0-.17.27-.44.27-.83,0-.39-.16-.58-.14-.58.08,0,.11-.04.14-.12.08-.08-.05-.15-.16-.21-.33-.06-.16-.14-.32-.25-.45-.11-.14-.22-.21-.33-.21-.17,0-.25-.27-.25-.82,0-.38-.04-.59-.12-.62-.08-.03-.26.1-.54.37-.22.22-.44.33-.66.33-.39,0-.61-.6-.66-1.8v-.16c.33-1.53.5-3.44.5-5.74,0-.11-.03-.19-.08-.25.11-.93.28-2.76.5-5.49.28-3.44.41-7.43.41-11.97,0-6.07-.3-10.85-.91-14.35-.22-1.26-.39-3.8-.5-7.62-.06-1.31-.08-2.71-.08-4.18,0-.82.04-1.3.12-1.43.08-.14.23-.18.46-.12h.25c.22,0,.41-.11.58-.33.11-.22.18-.31.21-.29.03.03.1.15.21.37.11.27.19.41.25.41.05-.05.1-.15.12-.29.03-.14.07-.29.12-.45.11-.6.25-.98.41-1.15.44-.27,1.24-.49,2.4-.66s2.37-.25,3.65-.25c1.82.06,2.97.12,3.44.21.47.08.7.23.7.45,0,.27.3.41.91.41.5,0,1.08.05,1.74.16.44.11.73.27.87.49.14.22.23.87.29,1.97.11,1.31.36,3.13.75,5.45.39,2.32.75,4.2,1.08,5.62.61,2.57,1.55,5.42,2.82,8.57,1.27,3.14,2.49,5.59,3.65,7.34.77,1.26,1.81,2.72,3.11,4.39,1.3,1.67,2.28,2.83,2.94,3.48l1.08.98.17-2.95c.22-3.82.36-8.12.41-12.87.11-6.78.3-11.29.58-13.53l.41-3.61-.17,4.51c-.11,2.68-.08,4.45.08,5.33.11.33.21.12.29-.61.08-.74.15-1.82.21-3.24.11-3.06.3-5.56.58-7.5.28-1.94.75-3.76,1.41-5.45.17-.49.29-.81.37-.94.08-.14.15.01.21.45.05.44.26.81.62,1.11.36.3.62.34.79.12.11-.05.28-.55.5-1.48.11-.71.17-.82.17-.33.11.71.28,1.09.5,1.15l.17.08c.22,0,.33-.38.33-1.15.05-.71.11-.85.17-.41.05.6.21,1.18.46,1.72.25.55.46.82.62.82s.25.47.25,1.39c0,.55.01.89.04,1.02.03.14.15.04.37-.29.33-.55.5-1.04.5-1.48,0-.33.05-.49.17-.49.17,0,.33.15.5.45.17.3.28.67.33,1.11.33,1.75.61,6.52.83,14.31ZM367.61,90.52c-.11.22-.19.7-.25,1.43-.06.74-.03,1.02.08.86,0-.05.03-.19.08-.41.05-.22.11-.55.17-.98.05-.87.03-1.18-.08-.9Z"/>
        </g>
      </g>
      <g>
        <path class="cls-6" d="M164.7,159.26c0,2.59-1.9,4.16-5.04,4.16h-3.31v3.85h-1.3v-12.19h4.61c3.13,0,5.04,1.57,5.04,4.18ZM163.39,159.26c0-1.95-1.3-3.07-3.77-3.07h-3.27v6.1h3.27c2.46,0,3.77-1.11,3.77-3.03Z"/>
        <path class="cls-6" d="M177.82,155.08v12.19h-1.29v-5.63h-7.71v5.63h-1.3v-12.19h1.3v5.43h7.71v-5.43h1.29Z"/>
        <path class="cls-6" d="M180.74,161.17c0-3.55,2.75-6.2,6.48-6.2s6.46,2.63,6.46,6.2-2.76,6.2-6.46,6.2-6.48-2.65-6.48-6.2ZM192.38,161.17c0-2.91-2.2-5.05-5.16-5.05s-5.19,2.14-5.19,5.05,2.22,5.05,5.19,5.05,5.16-2.14,5.16-5.05Z"/>
        <path class="cls-6" d="M210.04,167.46l-1.71-1.74c-1.04,1.1-2.45,1.65-4.12,1.65-2.41,0-4.14-1.25-4.14-3.1,0-1.45.85-2.51,3.1-3.8-1.2-1.22-1.55-1.95-1.55-2.89,0-1.55,1.21-2.6,3.12-2.6,1.74,0,2.87.91,2.87,2.42,0,1.22-.74,2.07-2.75,3.22l3.38,3.45c.37-.64.65-1.43.83-2.35l1.02.31c-.23,1.1-.6,2.04-1.09,2.8l1.76,1.79-.72.82ZM207.59,164.97l-3.72-3.78c-1.97,1.11-2.57,1.88-2.57,2.96,0,1.32,1.2,2.19,2.98,2.19,1.34,0,2.46-.45,3.31-1.38ZM202.79,157.57c0,.71.26,1.22,1.39,2.35,1.78-1.01,2.36-1.62,2.36-2.49s-.65-1.52-1.8-1.52c-1.23,0-1.95.68-1.95,1.65Z"/>
        <path class="cls-6" d="M227.86,155.08l-5.46,12.19h-1.29l-5.46-12.19h1.41l4.72,10.59,4.75-10.59h1.32Z"/>
        <path class="cls-6" d="M229.64,155.08h1.3v12.19h-1.3v-12.19Z"/>
        <path class="cls-6" d="M243.67,166.15v1.11h-8.72v-12.19h8.45v1.11h-7.15v4.34h6.37v1.1h-6.37v4.53h7.41Z"/>
        <path class="cls-6" d="M249.13,156.19h-4.33v-1.11h9.97v1.11h-4.33v11.08h-1.3v-11.08Z"/>
        <path class="cls-6" d="M267.15,155.08v12.19h-1.07l-7.92-9.89v9.89h-1.3v-12.19h1.07l7.94,9.89v-9.89h1.29Z"/>
        <path class="cls-6" d="M278.89,164.01h-6.87l-1.48,3.26h-1.36l5.63-12.19h1.29l5.63,12.19h-1.37l-1.48-3.26ZM278.42,162.97l-2.96-6.55-2.96,6.55h5.92Z"/>
        <path class="cls-6" d="M296.59,155.08v12.19h-1.25v-9.75l-4.84,8.2h-.62l-4.84-8.15v9.7h-1.25v-12.19h1.07l5.35,9.04,5.3-9.04h1.07Z"/>
        <path class="cls-6" d="M309.32,166.15v1.11h-8.72v-12.19h8.45v1.11h-7.15v4.34h6.37v1.1h-6.37v4.53h7.41Z"/>
        <path class="cls-6" d="M311.21,165.79l.51-.99c.88.85,2.45,1.48,4.07,1.48,2.31,0,3.31-.96,3.31-2.16,0-3.34-7.59-1.29-7.59-5.8,0-1.79,1.41-3.34,4.54-3.34,1.39,0,2.83.4,3.82,1.08l-.44,1.03c-1.06-.68-2.29-1.01-3.38-1.01-2.25,0-3.26.99-3.26,2.21,0,3.34,7.59,1.32,7.59,5.77,0,1.79-1.44,3.33-4.6,3.33-1.85,0-3.66-.64-4.58-1.59Z"/>
        <path class="cls-6" d="M331.93,166.15v1.11h-8.72v-12.19h8.45v1.11h-7.15v4.34h6.37v1.1h-6.37v4.53h7.41Z"/>
        <path class="cls-6" d="M338.52,161.17c0-3.57,2.75-6.2,6.46-6.2,1.8,0,3.42.59,4.51,1.78l-.83.82c-1-1.01-2.24-1.45-3.64-1.45-2.98,0-5.21,2.16-5.21,5.05s2.24,5.05,5.21,5.05c1.41,0,2.64-.44,3.64-1.46l.83.82c-1.09,1.18-2.71,1.79-4.52,1.79-3.7,0-6.44-2.63-6.44-6.2Z"/>
        <path class="cls-6" d="M352.13,162.06v-6.98h1.3v6.93c0,2.89,1.37,4.22,3.77,4.22s3.79-1.32,3.79-4.22v-6.93h1.27v6.98c0,3.5-1.9,5.31-5.05,5.31s-5.07-1.81-5.07-5.31Z"/>
        <path class="cls-6" d="M366.18,155.08h1.3v12.19h-1.3v-12.19Z"/>
        <path class="cls-6" d="M370.32,165.79l.51-.99c.88.85,2.45,1.48,4.07,1.48,2.31,0,3.31-.96,3.31-2.16,0-3.34-7.59-1.29-7.59-5.8,0-1.79,1.41-3.34,4.54-3.34,1.39,0,2.83.4,3.82,1.08l-.44,1.03c-1.06-.68-2.29-1.01-3.38-1.01-2.25,0-3.26.99-3.26,2.21,0,3.34,7.59,1.32,7.59,5.77,0,1.79-1.44,3.33-4.6,3.33-1.85,0-3.66-.64-4.58-1.59Z"/>
        <path class="cls-6" d="M382.33,155.08h1.3v12.19h-1.3v-12.19Z"/>
        <path class="cls-6" d="M397.94,155.08v12.19h-1.07l-7.92-9.89v9.89h-1.3v-12.19h1.07l7.94,9.89v-9.89h1.29Z"/>
        <path class="cls-6" d="M410.68,166.15v1.11h-8.72v-12.19h8.45v1.11h-7.15v4.34h6.37v1.1h-6.37v4.53h7.41Z"/>
      </g>
    </g>
  </g>
</svg>